<svg fill="none" xmlns="http://www.w3.org/2000/svg" viewBox="0 0 32 32"><path d="M13.879 26.515a.5.5 0 01.606.364l.5 2c.01.04.015.081.015.121h2c0-.04.005-.08.015-.121l.5-2a.5.5 0 01.97.242L18 29.061V31a1 1 0 01-1 1h-2a1 1 0 01-1-1v-1.938l-.485-1.94a.5.5 0 01.364-.607z" fill="#F33136"/><path d="M14 27c-.552 0-1.02-.468-1.317-.934-.544-.854-1.733-1.777-3.128-2.861C6.33 20.697 2 17.332 2 12 2 5.373 8.268 0 16 0v27h-2z" fill="#F33136"/><path d="M16 27h-1.714c0-1.118-.873-2.305-1.969-3.795C10.474 20.697 8 17.332 8 12c0-6.627 3.582-12 8-12v27z" fill="#FC7B0E"/><path d="M18 27c.552 0 1.02-.468 1.317-.934.544-.854 1.733-1.777 3.128-2.861C25.67 20.697 30 17.332 30 12c0-6.627-6.268-12-14-12v27h2z" fill="#FFD799"/><path d="M16 27h1.714c0-1.118.873-2.305 1.969-3.795C21.526 20.697 24 17.332 24 12c0-6.627-3.582-12-8-12v27z" fill="#FFB64F"/><rect x="8" y="24" width="24" height="8" rx="1" fill="#297EF1"/><path fill-rule="evenodd" clip-rule="evenodd" d="M11.051 30.2v-4.338h1.497c.284 0 .527.027.727.081.201.054.367.131.495.231.13.1.224.221.284.363.06.142.09.302.09.48 0 .102-.015.2-.045.293a.846.846 0 01-.14.26 1.045 1.045 0 01-.24.221 1.451 1.451 0 01-.346.168c.596.134.894.456.894.966 0 .184-.035.354-.105.51-.07.156-.172.29-.306.404a1.462 1.462 0 01-.495.265c-.196.064-.42.096-.672.096h-1.638zm.807-1.902v1.272h.819c.15 0 .276-.018.377-.054a.654.654 0 00.242-.144.528.528 0 00.133-.21.792.792 0 00-.005-.508.475.475 0 00-.141-.192.66.66 0 00-.246-.122 1.361 1.361 0 00-.363-.042h-.816zm0-.558h.645c.274 0 .482-.05.624-.15.142-.1.213-.259.213-.477 0-.226-.064-.387-.192-.483-.128-.096-.328-.144-.6-.144h-.69v1.254zm7.038-1.878v.642h-1.923v1.203h1.515v.621h-1.515v1.227h1.923v.645H16.16v-4.338h2.736zm4.956 0v.663h-1.305V30.2h-.807v-3.675h-1.311v-.663h3.423zm5.526 4.338h-.624a.273.273 0 01-.27-.183l-.324-.885h-1.797l-.324.885a.284.284 0 01-.267.183h-.627l1.704-4.338h.825l1.704 4.338zm-2.808-1.638h1.383l-.528-1.443a6.59 6.59 0 01-.165-.51 9.996 9.996 0 01-.083.285 3.19 3.19 0 01-.079.231l-.528 1.437z" fill="#fff"/></svg>