<svg fill="none" xmlns="http://www.w3.org/2000/svg" viewBox="0 0 44 44"><path d="M19.083 36.458a.687.687 0 01.834.5l.687 2.75c.014.056.021.112.021.167h2.75a.69.69 0 01.02-.167l.688-2.75a.688.688 0 011.334.334l-.667 2.668v2.665c0 .76-.616 1.375-1.375 1.375h-2.75c-.76 0-1.375-.616-1.375-1.375V39.96l-.667-2.668a.688.688 0 01.5-.834z" fill="#F33136"/><path d="M19.25 37.125c-.76 0-1.403-.644-1.811-1.284-.748-1.174-2.383-2.444-4.3-3.935C8.702 28.458 2.75 23.832 2.75 16.5 2.75 7.387 11.368 0 22 0v37.125h-2.75z" fill="#F33136"/><path d="M22 37.125h-2.063c0-1.537-1.05-3.17-2.368-5.219-2.218-3.448-5.194-8.074-5.194-15.406C12.375 7.387 16.685 0 22 0v37.125z" fill="#FC7B0E"/><path d="M24.75 37.125c.76 0 1.403-.644 1.811-1.284.748-1.174 2.383-2.444 4.3-3.935C35.298 28.458 41.25 23.832 41.25 16.5 41.25 7.387 32.632 0 22 0v37.125h2.75z" fill="#FFD799"/><path d="M22 37.125h2.063c0-1.537 1.05-3.17 2.368-5.219 2.218-3.448 5.194-8.074 5.194-15.406C31.625 7.387 27.315 0 22 0v37.125z" fill="#FFB64F"/></svg>