<svg width="32" height="32" viewBox="0 0 32 32" fill="none" xmlns="http://www.w3.org/2000/svg">
<path d="M0 16C0 7.16344 7.16344 0 16 0C24.8366 0 32 7.16344 32 16C32 24.8366 24.8366 32 16 32C7.16344 32 0 24.8366 0 16Z" fill="#F1B61E"/>
<path fill-rule="evenodd" clip-rule="evenodd" d="M23 12V19C23 20.4989 21.9007 21.7411 20.4643 21.9643L22 23.5V24H20L18 22H14L12 24H10V23.5L11.5357 21.9643C10.0993 21.7411 9 20.4989 9 19V12C9 9 12 8 16 8C20 8 23 9 23 12ZM11 15H15V11H11V15ZM17 11V15H21V11H17ZM14 18.5C14 19.3284 13.3284 20 12.5 20C11.6716 20 11 19.3284 11 18.5C11 17.6716 11.6716 17 12.5 17C13.3284 17 14 17.6716 14 18.5ZM19.5 20C20.3284 20 21 19.3284 21 18.5C21 17.6716 20.3284 17 19.5 17C18.6716 17 18 17.6716 18 18.5C18 19.3284 18.6716 20 19.5 20Z" fill="white"/>
</svg>
