<svg width="32" height="32" viewBox="0 0 32 32" fill="none" xmlns="http://www.w3.org/2000/svg">
<path d="M0 16C0 7.16344 7.16344 0 16 0C24.8366 0 32 7.16344 32 16C32 24.8366 24.8366 32 16 32C7.16344 32 0 24.8366 0 16Z" fill="#21B930"/>
<path fill-rule="evenodd" clip-rule="evenodd" d="M18.602 11.6629C18.2731 11.8827 17.8865 12 17.4909 12C16.9605 12 16.4518 11.7893 16.0767 11.4142C15.7016 11.0391 15.4909 10.5304 15.4909 10C15.4909 9.60444 15.6082 9.21776 15.828 8.88886C16.0477 8.55996 16.3601 8.30362 16.7255 8.15224C17.091 8.00087 17.4931 7.96126 17.8811 8.03843C18.269 8.1156 18.6254 8.30608 18.9051 8.58579C19.1848 8.86549 19.3753 9.22186 19.4525 9.60982C19.5296 9.99778 19.49 10.3999 19.3387 10.7654C19.1873 11.1308 18.9309 11.4432 18.602 11.6629ZM18.4807 15.3939C18.9048 15.7548 19.435 15.9676 19.9909 16C20.2561 16 20.5105 16.1053 20.698 16.2929C20.8855 16.4804 20.9909 16.7348 20.9909 17C20.9909 17.2652 20.8855 17.5195 20.698 17.7071C20.5105 17.8946 20.2561 18 19.9909 18C19.4289 18.0037 18.8722 17.8911 18.3558 17.6691C17.8395 17.447 17.3748 17.1205 16.9909 16.71L16.3009 18.29L18.6309 20.23C18.7438 20.324 18.8346 20.4417 18.8968 20.5748C18.959 20.7079 18.9911 20.8531 18.9909 21V23C18.9909 23.2652 18.8855 23.5195 18.698 23.7071C18.5105 23.8946 18.2561 24 17.9909 24C17.7257 24 17.4713 23.8946 17.2838 23.7071C17.0963 23.5195 16.9909 23.2652 16.9909 23V21.47L14.4109 19.35L12.9309 23.35C12.8381 23.5993 12.65 23.8015 12.4081 23.9121C12.1662 24.0228 11.8902 24.0328 11.6409 23.94C11.3916 23.8471 11.1894 23.6591 11.0787 23.4172C10.9681 23.1752 10.9581 22.8993 11.0509 22.65L13.8709 15L12.7509 15.32L11.9309 17.32C11.8328 17.5666 11.6407 17.7642 11.3969 17.8692C11.1531 17.9742 10.8776 17.9781 10.6309 17.88C10.3842 17.7818 10.1867 17.5898 10.0817 17.346C9.97664 17.1022 9.97277 16.8266 10.0709 16.58L11.0709 14.08C11.1282 13.9376 11.2176 13.8103 11.3321 13.708C11.4465 13.6056 11.583 13.5311 11.7309 13.49L15.0909 12.49H15.2109C15.3204 12.4755 15.4314 12.4755 15.5409 12.49H15.6409C16.0899 12.5025 16.5238 12.6546 16.8823 12.9253C17.2407 13.1959 17.5059 13.5716 17.6409 14C17.7618 14.5436 18.0566 15.0329 18.4807 15.3939Z" fill="white"/>
</svg>
