<svg width="32" height="32" viewBox="0 0 32 32" fill="none" xmlns="http://www.w3.org/2000/svg">
<path d="M0 16C0 7.16344 7.16344 0 16 0C24.8366 0 32 7.16344 32 16C32 24.8366 24.8366 32 16 32C7.16344 32 0 24.8366 0 16Z" fill="#15CACD"/>
<path d="M20.5 11C20.5 12.1046 19.6046 13 18.5 13C17.3954 13 16.5 12.1046 16.5 11C16.5 9.89543 17.3954 9 18.5 9C19.6046 9 20.5 9.89543 20.5 11Z" fill="white"/>
<path d="M16.457 15.543C16.6393 15.699 16.836 15.8518 17.0452 15.9962C17.8165 16.5285 18.8381 17 20 17C20.5523 17 21 16.5523 21 16C21 15.4477 20.5523 15 20 15C19.3793 15 18.7507 14.7432 18.1812 14.3502C17.6122 13.9575 17.1823 13.483 16.9774 13.1864C16.7231 12.8185 16.2724 12.5 15.7006 12.5C15.307 12.5 14.9294 12.6564 14.651 12.9348L12.4471 15.1386C12.1608 15.4249 12 15.8133 12 16.2181C12 16.7286 12.2551 17.2053 12.6798 17.4884L15 19.0352V22C15 22.5523 15.4477 23 16 23C16.5523 23 17 22.5523 17 22V18.5C17 18.1656 16.8329 17.8534 16.5547 17.6679L15.2211 16.7789L16.457 15.543Z" fill="white"/>
<path fill-rule="evenodd" clip-rule="evenodd" d="M24 21C24 22.6569 22.6569 24 21 24C19.3431 24 18 22.6569 18 21C18 19.3431 19.3431 18 21 18C22.6569 18 24 19.3431 24 21ZM22.5 21C22.5 21.8284 21.8284 22.5 21 22.5C20.1716 22.5 19.5 21.8284 19.5 21C19.5 20.1716 20.1716 19.5 21 19.5C21.8284 19.5 22.5 20.1716 22.5 21Z" fill="white"/>
<path fill-rule="evenodd" clip-rule="evenodd" d="M11 24C12.6569 24 14 22.6569 14 21C14 19.3431 12.6569 18 11 18C9.34315 18 8 19.3431 8 21C8 22.6569 9.34315 24 11 24ZM11 22.5C11.8284 22.5 12.5 21.8284 12.5 21C12.5 20.1716 11.8284 19.5 11 19.5C10.1716 19.5 9.5 20.1716 9.5 21C9.5 21.8284 10.1716 22.5 11 22.5Z" fill="white"/>
</svg>
