<svg width="32" height="32" viewBox="0 0 32 32" fill="none" xmlns="http://www.w3.org/2000/svg">
<path d="M0 16C0 7.16344 7.16344 0 16 0C24.8366 0 32 7.16344 32 16C32 24.8366 24.8366 32 16 32C7.16344 32 0 24.8366 0 16Z" fill="#F05759"/>
<path fill-rule="evenodd" clip-rule="evenodd" d="M23.5388 8.46116C22.915 7.83732 21.9003 7.84775 21.2895 8.4843L17.8789 12.0807L10.0251 9.1355C9.83777 9.06526 9.62671 9.11098 9.48527 9.25242L8.1494 10.5883C7.9502 10.7875 7.9502 11.1105 8.1494 11.3097C8.18146 11.3417 8.21765 11.3694 8.25701 11.3918L14.8184 15.1412L11.2478 18.7118L9.50892 18.2771C9.32376 18.2308 9.12825 18.2917 9.00219 18.4351L8.14079 19.4144C7.95473 19.6259 7.97538 19.9482 8.18691 20.1343C8.22708 20.1696 8.27256 20.1984 8.32169 20.2196L10.7377 21.2622L11.7803 23.6782C11.892 23.9369 12.1921 24.0561 12.4508 23.9445C12.4999 23.9233 12.5454 23.8945 12.5856 23.8591L13.5649 22.9977C13.7082 22.8717 13.7692 22.6762 13.7229 22.491L13.2881 20.7521L16.8588 17.1815L20.6081 23.7429C20.7479 23.9875 21.0595 24.0725 21.3041 23.9327C21.3434 23.9102 21.3796 23.8826 21.4117 23.8505L22.7476 22.5146C22.889 22.3732 22.9347 22.1621 22.8645 21.9749L19.9193 14.121L23.5157 10.7105C24.1523 10.0996 24.1627 9.08502 23.5388 8.46116Z" fill="white"/>
</svg>
