<svg width="32" height="32" viewBox="0 0 32 32" fill="none" xmlns="http://www.w3.org/2000/svg">
<path d="M0 16C0 7.16344 7.16344 0 16 0C24.8366 0 32 7.16344 32 16C32 24.8366 24.8366 32 16 32C7.16344 32 0 24.8366 0 16Z" fill="#FF7B5E"/>
<path fill-rule="evenodd" clip-rule="evenodd" d="M24 21.5C24 22.33 23.32 23 22.5 23C21.7189 23 21.0794 22.3976 21.0069 21.6431L21 21.5V21H11V21.5C11 22.33 10.33 23 9.50003 23C8.71885 23 8.0794 22.4065 8.00688 21.6447L8.00003 21.5L7.99915 14.9865C8.0003 14.9078 8.01095 14.8278 8.03202 14.748L8.07155 14.6286L10.0715 9.62861C10.2082 9.28692 10.5197 9.0511 10.8788 9.00735L11 9H21C21.368 9 21.7027 9.20165 21.8766 9.51875L21.9285 9.62861L23.9285 14.6286C23.9723 14.7381 23.9953 14.8492 24.0001 14.9583L24 21.5ZM11.5 16C10.67 16 10 16.67 10 17.5C10 18.33 10.67 19 11.5 19C12.33 19 13 18.33 13 17.5C13 16.67 12.33 16 11.5 16ZM20.5 16C19.67 16 19 16.67 19 17.5C19 18.33 19.67 19 20.5 19C21.33 19 22 18.33 22 17.5C22 16.67 21.33 16 20.5 16ZM20.324 11H11.677L10.477 14H21.524L20.324 11Z" fill="white"/>
</svg>
