<svg width="32" height="32" viewBox="0 0 32 32" fill="none" xmlns="http://www.w3.org/2000/svg">
<path d="M0 16C0 7.16344 7.16344 0 16 0C24.8366 0 32 7.16344 32 16C32 24.8366 24.8366 32 16 32C7.16344 32 0 24.8366 0 16Z" fill="#8978FF"/>
<path fill-rule="evenodd" clip-rule="evenodd" d="M20.64 8.64C19.2 8.072 17.488 8 16 8C14.512 8 12.8 8.072 11.36 8.64C9.224 9.472 8 11.24 8 13.488V24H24V13.488C24 11.24 22.776 9.472 20.64 8.64ZM21 13.8571V18.8571C21 19.9278 20.2148 20.8151 19.1888 20.9745L20.2857 22.0714V22.4286H18.8571L17.4286 21H14.5714L13.1429 22.4286H11.7143V22.0714L12.8112 20.9745C11.7852 20.8151 11 19.9278 11 18.8571V13.8571C11 11.7143 13.1429 11 16 11C18.8571 11 21 11.7143 21 13.8571ZM12.4286 13.1429V16H19.5714V13.1429H12.4286ZM14.5714 18.5C14.5714 19.0917 14.0917 19.5714 13.5 19.5714C12.9083 19.5714 12.4286 19.0917 12.4286 18.5C12.4286 17.9083 12.9083 17.4286 13.5 17.4286C14.0917 17.4286 14.5714 17.9083 14.5714 18.5ZM18.5 19.5714C19.0917 19.5714 19.5714 19.0917 19.5714 18.5C19.5714 17.9083 19.0917 17.4286 18.5 17.4286C17.9083 17.4286 17.4286 17.9083 17.4286 18.5C17.4286 19.0917 17.9083 19.5714 18.5 19.5714Z" fill="white"/>
</svg>
