<svg width="32" height="32" viewBox="0 0 32 32" fill="none" xmlns="http://www.w3.org/2000/svg">
<path d="M0 16C0 7.16344 7.16344 0 16 0C24.8366 0 32 7.16344 32 16C32 24.8366 24.8366 32 16 32C7.16344 32 0 24.8366 0 16Z" fill="#A4A7AC"/>
<path fill-rule="evenodd" clip-rule="evenodd" d="M16 20.0001C16.8284 20.0001 17.5 20.6717 17.5 21.5001C17.5 22.3285 16.8284 23.0001 16 23.0001C15.1716 23.0001 14.5 22.3285 14.5 21.5001C14.5 20.6717 15.1716 20.0001 16 20.0001ZM16.9681 9.10098C18.7451 9.47198 20.1501 10.958 20.4401 12.75C20.7991 14.981 19.5181 16.972 17.6121 17.703L17.5001 17.742V19H14.5001V16.5C14.5001 15.7207 15.0954 15.0796 15.8557 15.0069L16.0001 15C16.8281 15 17.5001 14.329 17.5001 13.5C17.5001 12.672 16.8281 12 16.0001 12C15.2201 12 14.5791 12.595 14.5071 13.355L14.5001 13.5H11.5001C11.5001 10.699 14.0601 8.49498 16.9681 9.10098Z" fill="white"/>
</svg>
