<svg width="32" height="32" viewBox="0 0 32 32" fill="none" xmlns="http://www.w3.org/2000/svg">
<path d="M0 16C0 7.16344 7.16344 0 16 0V0C24.8366 0 32 7.16344 32 16V16C32 24.8366 24.8366 32 16 32V32C7.16344 32 0 24.8366 0 16V16Z" fill="#BA5AE8"/>
<path fill-rule="evenodd" clip-rule="evenodd" d="M9 19C9 19.88 9.39 20.67 10 21.22V22.5C10 23.33 10.67 24 11.5 24C12.33 24 13 23.33 13 22.5V22H19V22.5C19 23.32 19.67 24 20.5 24C21.32 24 22 23.33 22 22.5V21.22C22.61 20.67 23 19.88 23 19V12C23 9 20 8 16 8C12 8 9 9 9 12V19ZM12.5 20C11.67 20 11 19.33 11 18.5C11 17.67 11.67 17 12.5 17C13.33 17 14 17.67 14 18.5C14 19.33 13.33 20 12.5 20ZM19.5 20C18.67 20 18 19.33 18 18.5C18 17.67 18.67 17 19.5 17C20.33 17 21 17.67 21 18.5C21 19.33 20.33 20 19.5 20ZM21 15H11V11H21V15Z" fill="white"/>
</svg>
