<svg xmlns="http://www.w3.org/2000/svg" width="128" height="96" fill="none"><path fill="#BBD9FD" fill-rule="evenodd" d="M38.15 93.955c2.147.763 7.653 1.424 12.09 1.688 12.119.722 29.052.33 36.23-.998 7.231-1.34 7.553-3.364-10.83-4.366-15.654-.854-33.926.363-37.833 2.175-1.049.487-.991 1.028.343 1.5Z" clip-rule="evenodd"/><path fill="#297EF1" fill-rule="evenodd" d="M68.641 13.698 42.583 19.09c-3.788.788-6.22 4.474-5.436 8.242l10.852 51.938c.784 3.773 4.493 6.186 8.278 5.413l26.062-5.413a6.962 6.962 0 0 0 5.432-8.242l-10.848-51.93c-.788-3.769-4.493-6.19-8.282-5.401Z" clip-rule="evenodd"/><path fill="#BBD9FD" fill-rule="evenodd" d="m80.66 62.672-29.485 6.115-8.385-40.122 29.493-6.106 8.377 40.113Zm-10.502 12.15a2.636 2.636 0 0 1-3.638.748 2.6 2.6 0 0 1-.748-3.618 2.72 2.72 0 0 1 3.634-.756 2.607 2.607 0 0 1 .76 3.618l-.008.008Z" clip-rule="evenodd"/><path fill="#fff" d="M97.828 0c-14.083 0-25.5 11.417-25.5 25.5l.003.345a25.496 25.496 0 0 0 13.273 22.04l.18.096.071-.122c-.38.64-.617 1.306-.617 1.967 0 1.424.679 2.62 2.05 3.099l.23.077c2.601.819 4.952.042 7.797-1.95l.217-.155.561.045a25.8 25.8 0 0 0 1.735.058c14.084 0 25.5-11.417 25.5-25.5S111.912 0 97.828 0Z"/><path fill="#BBD9FD" d="M97.828 0c-14.083 0-25.5 11.417-25.5 25.5l.003.345a25.496 25.496 0 0 0 13.273 22.04l.18.096.071-.122c-.38.64-.617 1.306-.617 1.967 0 1.424.679 2.62 2.05 3.099l.23.077c2.601.819 4.952.042 7.797-1.95l.217-.155.561.045a25.8 25.8 0 0 0 1.735.058c14.084 0 25.5-11.417 25.5-25.5S111.912 0 97.828 0Zm0 3c12.427 0 22.5 10.074 22.5 22.5S110.255 48 97.828 48c-.856 0-1.705-.048-2.547-.142l-.579-.066-.893.65c-2.24 1.608-3.823 2.172-5.372 1.703l-.16-.052c-.037-.013-.04-.018-.04-.267 0-.029.068-.218.181-.409l.061-.097a5.366 5.366 0 0 0 .723-1.677l.294-1.2-1.12-.518A22.501 22.501 0 0 1 75.328 25.5c0-12.426 10.074-22.5 22.5-22.5Z"/><path fill="#297EF2" d="M84 22.2c0-3.92 0-5.88.763-7.378a7 7 0 0 1 3.06-3.059C89.318 11 91.28 11 95.2 11h5.6c3.92 0 5.881 0 7.378.763a7 7 0 0 1 3.059 3.06C112 16.318 112 18.28 112 22.2v5.6c0 3.92 0 5.88-.763 7.378a7 7 0 0 1-3.059 3.059C106.681 39 104.72 39 100.8 39h-5.6c-3.92 0-5.88 0-7.378-.763a7 7 0 0 1-3.059-3.06C84 33.682 84 31.72 84 27.8v-5.6Z"/><path fill="#fff" fill-rule="evenodd" d="M101.07 27.836a.515.515 0 0 1-.759.11c-.66.518-1.471.8-2.316.8-.842 0-1.652-.281-2.31-.796l-.052.035a.516.516 0 0 1-.703-.147.507.507 0 0 1 .144-.693c.198-.13.212-.39.212-.393a.514.514 0 0 1 .163-.357.467.467 0 0 1 .358-.134.504.504 0 0 1 .49.512c0 .004-.001.142-.051.333a2.737 2.737 0 0 0 3.506-.007 1.637 1.637 0 0 1-.05-.318.505.505 0 0 1 .497-.52h.009c.273 0 .499.22.505.493 0 0 .015.261.211.39.229.152.294.461.146.692Zm2.151-5.9a5.5 5.5 0 0 0-1.565-3.249 5.237 5.237 0 0 0-7.466.001 5.5 5.5 0 0 0-1.568 3.265 5.26 5.26 0 0 0-3.18 1.609 5.528 5.528 0 0 0-1.522 3.833c0 3.022 2.394 5.48 5.338 5.48h9.483c2.943 0 5.339-2.458 5.339-5.48 0-2.856-2.14-5.21-4.859-5.46Z" clip-rule="evenodd"/></svg>