<svg width="106" height="106" fill="none" xmlns="http://www.w3.org/2000/svg"><g filter="url(#a)"><path d="M16 48c0-19.882 16.118-36 36-36s36 16.118 36 36-16.118 36-36 36-36-16.118-36-36Z" fill="#fff"/></g><path d="M65.11 37.39C63.962 31.193 58.53 26.5 52 26.5c-6.53 0-11.962 4.693-13.11 10.89C32.693 38.538 28 43.97 28 50.5c0 7.364 5.97 13.333 13.333 13.333H62.667C70.03 63.833 76 57.863 76 50.5c0-6.53-4.693-11.962-10.89-13.11Z" fill="#B3D3FF"/><path d="M49.569 36c.837 0 1.528.63 1.622 1.443l.011.19v10.941a.49.49 0 0 0 .377.477l.113.013h.653c.27 0 .49-.22.49-.49v-9.308l.011-.19a1.633 1.633 0 0 1 3.244 0l.011.19v9.308a.49.49 0 0 0 .377.477l.113.013h.653c.27 0 .49-.22.49-.49v-6.042l.011-.19a1.633 1.633 0 0 1 3.244 0l.011.19v16.33a6.527 6.527 0 0 1-3 5.495V67a2 2 0 0 1-2 2h-8a2 2 0 0 1-2-2v-2.615a6.69 6.69 0 0 1-1.022-.78l-8.425-7.824a1.73 1.73 0 0 1-.262-2.226 1.538 1.538 0 0 1 2.075-.463l4.67 2.827V40.9l.012-.19a1.633 1.633 0 0 1 3.244 0l.01.19v7.675a.49.49 0 0 0 .378.477l.112.013h.654c.27 0 .49-.22.49-.49V37.633l.01-.19A1.633 1.633 0 0 1 49.57 36Z" fill="#297EF2"/><g filter="url(#b)"><rect x="58" y="54" width="32" height="32" rx="8" fill="#fff"/><path d="M72.409 77.886c.2-.05.404.072.455.273l.375 1.5c.007.03.011.061.011.091h1.5c0-.03.004-.06.011-.091l.375-1.5a.375.375 0 1 1 .728.182l-.364 1.455v1.454a.75.75 0 0 1-.75.75h-1.5a.75.75 0 0 1-.75-.75v-1.454l-.364-1.455a.375.375 0 0 1 .273-.455Z" fill="#F33136"/><path d="M72.5 78.25c-.414 0-.765-.351-.988-.7-.408-.64-1.3-1.334-2.346-2.147C66.746 73.523 63.5 71 63.5 67c0-4.97 4.701-9 10.5-9v20.25h-1.5Z" fill="#F33136"/><path d="M74 78.25h-1.286c0-.838-.654-1.73-1.476-2.847C69.855 73.523 68 71 68 67c0-4.97 2.686-9 6-9v20.25Z" fill="#FC7B0E"/><path d="M75.5 78.25c.414 0 .765-.351.988-.7.408-.64 1.3-1.334 2.346-2.147C81.254 73.523 84.5 71 84.5 67c0-4.97-4.701-9-10.5-9v20.25h1.5Z" fill="#FFD799"/><path d="M74 78.25h1.286c0-.838.654-1.73 1.476-2.847C78.145 73.523 80 71 80 67c0-4.97-2.686-9-6-9v20.25Z" fill="#FFB64F"/></g><defs><filter id="a" x="0" y="0" width="104" height="104" filterUnits="userSpaceOnUse" color-interpolation-filters="sRGB"><feFlood flood-opacity="0" result="BackgroundImageFix"/><feColorMatrix in="SourceAlpha" values="0 0 0 0 0 0 0 0 0 0 0 0 0 0 0 0 0 0 127 0" result="hardAlpha"/><feOffset dy="4"/><feGaussianBlur stdDeviation="8"/><feColorMatrix values="0 0 0 0 0 0 0 0 0 0 0 0 0 0 0 0 0 0 0.06 0"/><feBlend in2="BackgroundImageFix" result="effect1_dropShadow_754_48957"/><feColorMatrix in="SourceAlpha" values="0 0 0 0 0 0 0 0 0 0 0 0 0 0 0 0 0 0 127 0" result="hardAlpha"/><feOffset dy="2"/><feGaussianBlur stdDeviation="2"/><feColorMatrix values="0 0 0 0 0 0 0 0 0 0 0 0 0 0 0 0 0 0 0.0793047 0"/><feBlend in2="effect1_dropShadow_754_48957" result="effect2_dropShadow_754_48957"/><feColorMatrix in="SourceAlpha" values="0 0 0 0 0 0 0 0 0 0 0 0 0 0 0 0 0 0 127 0" result="hardAlpha"/><feMorphology radius=".5" operator="dilate" in="SourceAlpha" result="effect3_dropShadow_754_48957"/><feOffset/><feColorMatrix values="0 0 0 0 0 0 0 0 0 0 0 0 0 0 0 0 0 0 0.12 0"/><feBlend in2="effect2_dropShadow_754_48957" result="effect3_dropShadow_754_48957"/><feBlend in="SourceGraphic" in2="effect3_dropShadow_754_48957" result="shape"/></filter><filter id="b" x="42" y="42" width="64" height="64" filterUnits="userSpaceOnUse" color-interpolation-filters="sRGB"><feFlood flood-opacity="0" result="BackgroundImageFix"/><feColorMatrix in="SourceAlpha" values="0 0 0 0 0 0 0 0 0 0 0 0 0 0 0 0 0 0 127 0" result="hardAlpha"/><feOffset dy="4"/><feGaussianBlur stdDeviation="8"/><feColorMatrix values="0 0 0 0 0.113725 0 0 0 0 0.129412 0 0 0 0 0.164706 0 0 0 0.06 0"/><feBlend in2="BackgroundImageFix" result="effect1_dropShadow_754_48957"/><feColorMatrix in="SourceAlpha" values="0 0 0 0 0 0 0 0 0 0 0 0 0 0 0 0 0 0 127 0" result="hardAlpha"/><feOffset dy="2"/><feGaussianBlur stdDeviation="2"/><feColorMatrix values="0 0 0 0 0.113725 0 0 0 0 0.129412 0 0 0 0 0.164706 0 0 0 0.0793047 0"/><feBlend in2="effect1_dropShadow_754_48957" result="effect2_dropShadow_754_48957"/><feColorMatrix in="SourceAlpha" values="0 0 0 0 0 0 0 0 0 0 0 0 0 0 0 0 0 0 127 0" result="hardAlpha"/><feMorphology radius=".5" operator="dilate" in="SourceAlpha" result="effect3_dropShadow_754_48957"/><feOffset/><feColorMatrix values="0 0 0 0 0.113725 0 0 0 0 0.129412 0 0 0 0 0.164706 0 0 0 0.12 0"/><feBlend in2="effect2_dropShadow_754_48957" result="effect3_dropShadow_754_48957"/><feBlend in="SourceGraphic" in2="effect3_dropShadow_754_48957" result="shape"/></filter></defs></svg>