<svg width="200" height="136" fill="none" xmlns="http://www.w3.org/2000/svg"><path fill="#fff" d="M0 0h200v136H0z"/><path d="M161 14.592c-1.888.222-7.568-.664-15.182-5.982-9.518-6.647-13.847-8.724-22.434-4.183C115 8.86 115.227 23.012 115 27M165.844 92c5.431-3.51 16.097-12.334 15.315-19.554-.977-9.025-12.708-11.282-22.81-10.78-10.101.501-17.596 4.512-28.349 1.504M23.495 72c-.329 4.729-2.425 21.765 5.479 27.308 9.88 6.928 23.668-1.244 30.831-5.203C66.97 90.146 79.072 83.217 85 85.527" stroke="#B2D3FF" stroke-width="4" stroke-linecap="round"/><path fill-rule="evenodd" clip-rule="evenodd" d="M62 118a1.5 1.5 0 1 1 0 3 1.5 1.5 0 0 1 0-3Zm.968-10.899c1.777.371 3.182 1.857 3.472 3.649a4.507 4.507 0 0 1-2.828 4.953l-.112.039V117h-3v-2.5a1.5 1.5 0 0 1 1.356-1.493L62 113a1.5 1.5 0 1 0-1.493-1.645l-.007.145h-3a4.506 4.506 0 0 1 5.468-4.399Z" fill="#38D1D3"/><circle cx="100" cy="64" fill="#297EF2" r="48"/><path fill-rule="evenodd" clip-rule="evenodd" d="M120.91 37.605a2.166 2.166 0 0 1 .235 3.055l-13 15.167a2.166 2.166 0 0 1-2.33.645L93.96 52.52 81.887 62.581a2.167 2.167 0 0 1-2.774-3.329l13-10.833a2.167 2.167 0 0 1 2.072-.391l11.618 3.873 12.052-14.061a2.166 2.166 0 0 1 3.055-.235Z" fill="#38D1D3"/><path fill-rule="evenodd" clip-rule="evenodd" d="M119.5 42.5a3.25 3.25 0 1 0 0-6.5 3.25 3.25 0 0 0 0 6.5Zm-26 10.833a3.25 3.25 0 1 0 0-6.5 3.25 3.25 0 0 0 0 6.5Zm-13 10.834a3.25 3.25 0 1 0 0-6.5 3.25 3.25 0 0 0 0 6.5Zm29.25-9.75a3.25 3.25 0 1 1-6.5 0 3.25 3.25 0 0 1 6.5 0ZM117.167 53.333a2 2 0 0 0-2 2V86a2 2 0 0 0 2 2h4.666a2 2 0 0 0 2-2V55.333a2 2 0 0 0-2-2h-4.666Zm-26 10.834a2 2 0 0 0-2 2V86a2 2 0 0 0 2 2h4.666a2 2 0 0 0 2-2V66.167a2 2 0 0 0-2-2h-4.666ZM78.167 75a2 2 0 0 0-2 2v9a2 2 0 0 0 2 2h4.666a2 2 0 0 0 2-2v-9a2 2 0 0 0-2-2h-4.666Zm24-4.5a2 2 0 0 1 2-2h4.666a2 2 0 0 1 2 2V86a2 2 0 0 1-2 2h-4.666a2 2 0 0 1-2-2V70.5Z" fill="#fff"/><path fill-rule="evenodd" clip-rule="evenodd" d="M43 21a2.25 2.25 0 1 1 0 4.5 2.25 2.25 0 0 1 0-4.5Zm1.452-16.349c2.666.557 4.773 2.786 5.208 5.474a6.76 6.76 0 0 1-4.242 7.43l-.168.058V19.5h-4.5v-3.75c0-1.17.893-2.13 2.034-2.24L43 13.5a2.25 2.25 0 1 0-2.24-2.468l-.01.218h-4.5a6.758 6.758 0 0 1 8.202-6.599Z" fill="#72E7E9"/><path fill-rule="evenodd" clip-rule="evenodd" d="M69 19a.75.75 0 1 1 0 1.5.75.75 0 0 1 0-1.5Zm.484-5.45a2.249 2.249 0 0 1 1.736 1.825 2.253 2.253 0 0 1-1.414 2.476l-.056.02v.629h-1.5v-1.25c0-.39.298-.71.678-.747L69 16.5a.75.75 0 1 0-.746-.823l-.004.073h-1.5c0-1.4 1.28-2.503 2.734-2.2Z" fill="#B9F6F7"/><path fill-rule="evenodd" clip-rule="evenodd" d="M46 42a.75.75 0 1 1 0 1.5.75.75 0 0 1 0-1.5Zm.484-5.45a2.249 2.249 0 0 1 1.736 1.825 2.253 2.253 0 0 1-1.414 2.476l-.056.02v.629h-1.5v-1.25c0-.39.298-.71.678-.747L46 39.5a.75.75 0 1 0-.746-.823l-.004.073h-1.5c0-1.4 1.28-2.503 2.734-2.2ZM20 14a.75.75 0 1 1 0 1.5.75.75 0 0 1 0-1.5Zm.484-5.45a2.249 2.249 0 0 1 1.736 1.825 2.253 2.253 0 0 1-1.414 2.476l-.056.02v.629h-1.5v-1.25c0-.39.298-.71.678-.747L20 11.5a.75.75 0 1 0-.746-.823l-.004.073h-1.5c0-1.4 1.28-2.503 2.734-2.2Z" fill="#D3FEFF"/><path fill-rule="evenodd" clip-rule="evenodd" d="M26 33a1.125 1.125 0 1 1 0 2.25A1.125 1.125 0 0 1 26 33Zm.726-8.174c1.333.278 2.387 1.392 2.604 2.736a3.38 3.38 0 0 1-2.12 3.715l-.085.03v.943h-2.25v-1.875c0-.584.447-1.065 1.017-1.12L26 29.25a1.125 1.125 0 1 0-1.12-1.234l-.005.109h-2.25a3.38 3.38 0 0 1 4.101-3.3Z" fill="#B9F6F7"/><path fill-rule="evenodd" clip-rule="evenodd" d="M39 116.5a.938.938 0 1 1 0 1.876.938.938 0 0 1 0-1.876Zm.605-6.812a2.811 2.811 0 0 1 2.17 2.281 2.816 2.816 0 0 1-1.767 3.095l-.07.025v.786h-1.875v-1.563c0-.487.372-.887.847-.933l.09-.004a.937.937 0 1 0-.933-1.028l-.004.09h-1.875c0-1.75 1.6-3.128 3.417-2.749Z" fill="#9EEEF0"/><path fill-rule="evenodd" clip-rule="evenodd" d="M46 90a.75.75 0 1 1 0 1.5.75.75 0 0 1 0-1.5Zm.484-5.45a2.249 2.249 0 0 1 1.736 1.825 2.253 2.253 0 0 1-1.414 2.476l-.056.02v.629h-1.5v-1.25c0-.39.298-.71.678-.747L46 87.5a.75.75 0 1 0-.746-.823l-.004.073h-1.5c0-1.4 1.28-2.503 2.734-2.2Z" fill="#B9F6F7"/><path fill-rule="evenodd" clip-rule="evenodd" d="M184 99a1.5 1.5 0 1 1 0 3 1.5 1.5 0 0 1 0-3Zm.968-10.9c1.777.372 3.182 1.858 3.472 3.65a4.507 4.507 0 0 1-2.828 4.953l-.112.039V98h-3v-2.5a1.5 1.5 0 0 1 1.356-1.493L184 94a1.5 1.5 0 1 0-1.493-1.645l-.007.145h-3a4.506 4.506 0 0 1 5.468-4.4Z" fill="#9EEEF0"/><path fill-rule="evenodd" clip-rule="evenodd" d="M191 64a1.125 1.125 0 1 1 0 2.25 1.125 1.125 0 0 1 0-2.25Zm.726-8.174c1.333.278 2.387 1.392 2.604 2.736a3.38 3.38 0 0 1-2.121 3.715l-.084.03v.943h-2.25v-1.875c0-.584.447-1.065 1.017-1.12l.108-.005a1.125 1.125 0 1 0-1.12-1.234l-.005.109h-2.25a3.38 3.38 0 0 1 4.101-3.3Z" fill="#D3FEFF"/><path fill-rule="evenodd" clip-rule="evenodd" d="M134 18a1.125 1.125 0 1 1 0 2.25 1.125 1.125 0 0 1 0-2.25Zm.726-8.174c1.333.278 2.387 1.392 2.604 2.736a3.38 3.38 0 0 1-2.121 3.715l-.084.03v.943h-2.25v-1.875c0-.585.447-1.065 1.017-1.12l.108-.005a1.125 1.125 0 1 0-1.12-1.234l-.005.109h-2.25a3.38 3.38 0 0 1 4.101-3.3Z" fill="#B9F6F7"/><path fill-rule="evenodd" clip-rule="evenodd" d="M118 119a.75.75 0 1 1 0 1.5.75.75 0 0 1 0-1.5Zm.484-5.45a2.252 2.252 0 0 1 .322 4.301l-.056.02v.629h-1.5v-1.25c0-.39.298-.71.678-.747l.072-.003a.75.75 0 1 0-.746-.823l-.004.073h-1.5a2.253 2.253 0 0 1 2.734-2.2ZM153 55a.75.75 0 1 1 0 1.5.75.75 0 0 1 0-1.5Zm.484-5.45a2.253 2.253 0 0 1 .322 4.301l-.056.02v.629h-1.5v-1.25c0-.39.298-.71.678-.747L153 52.5a.75.75 0 1 0-.746-.823l-.004.073h-1.5c0-1.4 1.28-2.503 2.734-2.2Z" fill="#D3FEFF"/><path fill-rule="evenodd" clip-rule="evenodd" d="M81 118a.75.75 0 1 1 0 1.5.75.75 0 0 1 0-1.5Zm.484-5.45a2.25 2.25 0 0 1 .322 4.301l-.056.02v.629h-1.5v-1.25c0-.39.298-.71.678-.747L81 115.5a.75.75 0 1 0-.746-.823l-.004.073h-1.5a2.253 2.253 0 0 1 2.734-2.2Z" fill="#B9F6F7"/><path fill-rule="evenodd" clip-rule="evenodd" d="M177 124a.75.75 0 1 1 0 1.5.75.75 0 0 1 0-1.5Zm.484-5.45a2.252 2.252 0 0 1 .322 4.301l-.056.02v.629h-1.5v-1.25c0-.39.298-.71.678-.747l.072-.003a.75.75 0 1 0-.746-.823l-.004.073h-1.5a2.253 2.253 0 0 1 2.734-2.2Z" fill="#D3FEFF"/><path fill-rule="evenodd" clip-rule="evenodd" d="M164 75a.75.75 0 1 1 0 1.5.75.75 0 0 1 0-1.5Zm.484-5.45a2.253 2.253 0 0 1 .322 4.301l-.056.02v.629h-1.5v-1.25c0-.39.298-.71.678-.747L164 72.5a.75.75 0 1 0-.746-.823l-.004.073h-1.5c0-1.4 1.28-2.503 2.734-2.2Z" fill="#38D1D3"/><path fill-rule="evenodd" clip-rule="evenodd" d="M92 8.5a.937.937 0 1 1 0 1.875.937.937 0 0 1 0-1.875Zm.605-6.812a2.81 2.81 0 0 1 2.17 2.28 2.817 2.817 0 0 1-1.767 3.096l-.07.025v.786h-1.875V6.312c0-.487.372-.887.847-.933l.09-.004a.937.937 0 1 0-.933-1.028l-.004.09h-1.875c0-1.75 1.6-3.128 3.417-2.749Z" fill="#72E7E9"/><circle cx="148" cy="104" r="24" fill="#B9F6F7"/><path fill-rule="evenodd" clip-rule="evenodd" d="M148 106c-4.418 0-8-4.029-8-9 0-4.97 3.582-9 8-9s8 4.03 8 9c0 4.971-3.582 9-8 9Zm-16 10c0-2 4-8 8-8s2 2 8 2 4-2 8-2 8 6 8 8 0 4-2 4h-28c-2 0-2-2-2-4Z" fill="#38D1D3"/><path fill-rule="evenodd" clip-rule="evenodd" d="M148 101a1.5 1.5 0 1 1-.001 3.001A1.5 1.5 0 0 1 148 101Zm.968-10.9c1.777.372 3.182 1.858 3.472 3.65a4.507 4.507 0 0 1-2.828 4.953l-.112.039V100h-3v-2.5a1.5 1.5 0 0 1 1.356-1.493L148 96a1.5 1.5 0 1 0-1.493-1.645l-.007.145h-3a4.506 4.506 0 0 1 5.468-4.4Z" fill="#fff"/><circle cx="148" cy="104" r="20" stroke="#B9F6F7" stroke-width="8"/><circle cx="24" cy="65" r="24" fill="#B9F6F7"/><path fill-rule="evenodd" clip-rule="evenodd" d="M24 67c-4.418 0-8-4.03-8-9s3.582-9 8-9 8 4.03 8 9-3.582 9-8 9ZM8 77c0-2 4-8 8-8s2 2 8 2 4-2 8-2 8 6 8 8 0 4-2 4H10c-2 0-2-2-2-4Z" fill="#38D1D3"/><path fill-rule="evenodd" clip-rule="evenodd" d="M24 62a1.5 1.5 0 1 1 0 3 1.5 1.5 0 0 1 0-3Zm.968-10.9c1.777.372 3.182 1.858 3.472 3.65a4.507 4.507 0 0 1-2.828 4.953l-.112.039V61h-3v-2.5a1.5 1.5 0 0 1 1.356-1.493L24 57a1.5 1.5 0 1 0-1.493-1.645l-.007.145h-3a4.506 4.506 0 0 1 5.468-4.4Z" fill="#fff"/><circle cx="24" cy="65" r="20" stroke="#B9F6F7" stroke-width="8"/><circle cx="172" cy="28" r="24" fill="#B9F6F7"/><path fill-rule="evenodd" clip-rule="evenodd" d="M172 30c-4.418 0-8-4.03-8-9s3.582-9 8-9 8 4.03 8 9-3.582 9-8 9Zm-16 10c0-2 4-8 8-8s2 2 8 2 4-2 8-2 8 6 8 8 0 4-2 4h-28c-2 0-2-2-2-4Z" fill="#38D1D3"/><path fill-rule="evenodd" clip-rule="evenodd" d="M172 25a1.5 1.5 0 1 1 0 3 1.5 1.5 0 0 1 0-3Zm.968-10.9c1.777.372 3.182 1.858 3.472 3.65a4.507 4.507 0 0 1-2.828 4.953l-.112.039V24h-3v-2.5a1.5 1.5 0 0 1 1.356-1.493L172 20a1.5 1.5 0 1 0-1.493-1.645l-.007.145h-3a4.506 4.506 0 0 1 5.468-4.4Z" fill="#fff"/><circle cx="172" cy="28" r="20" stroke="#B9F6F7" stroke-width="8"/><path d="M66.418 133.29a81.818 81.818 0 0 0 16.142 2.244c16.166.948 38.758.424 48.325-1.346 9.567-1.771 10.083-4.465-14.448-5.812-20.925-1.147-45.26.474-50.362 2.894-1.52.648-1.447 1.371.343 2.02Z" fill="#BBD9FD"/></svg>