<svg width="250" height="163" fill="none" xmlns="http://www.w3.org/2000/svg"><g clip-path="url(#a)"><path fill-rule="evenodd" clip-rule="evenodd" d="M54.535 10.576a25.382 25.382 0 0 1 3.93 0l.154-1.994a27.36 27.36 0 0 0-4.238 0l.154 1.994Zm7.805.61c1.284.307 2.53.713 3.73 1.21l.766-1.847a26.798 26.798 0 0 0-4.031-1.309l-.465 1.945Zm-15.41 1.21c1.2-.497 2.446-.903 3.73-1.21l-.465-1.946a26.798 26.798 0 0 0-4.03 1.309l.765 1.848Zm22.633 1.784a25.08 25.08 0 0 1 3.173 2.309l1.3-1.52a27.097 27.097 0 0 0-3.426-2.493l-1.047 1.704Zm-29.3 2.309a25.08 25.08 0 0 1 3.174-2.309l-1.047-1.704a27.097 27.097 0 0 0-3.426 2.493l1.3 1.52Zm35.248 2.775a25.09 25.09 0 0 1 2.309 3.173l1.704-1.047a27.097 27.097 0 0 0-2.493-3.426l-1.52 1.3ZM35.18 22.437a25.08 25.08 0 0 1 2.309-3.173l-1.52-1.3a27.097 27.097 0 0 0-2.493 3.426l1.704 1.047Zm44.423 3.493c.498 1.2.904 2.446 1.212 3.73l1.945-.465a26.794 26.794 0 0 0-1.309-4.03l-1.847.765Zm-47.418 3.73c.308-1.284.714-2.53 1.212-3.73l-1.848-.766a26.794 26.794 0 0 0-1.309 4.031l1.945.465Zm49.239 3.875a25.382 25.382 0 0 1 0 3.93l1.994.154a27.38 27.38 0 0 0 0-4.238l-1.994.154ZM31.5 35.5c0-.661.026-1.316.076-1.965l-1.994-.154a27.38 27.38 0 0 0 0 4.238l1.994-.154A25.382 25.382 0 0 1 31.5 35.5Zm49.315 5.84a24.793 24.793 0 0 1-1.212 3.73l1.848.766a26.794 26.794 0 0 0 1.309-4.031l-1.945-.465Zm-47.418 3.73a24.798 24.798 0 0 1-1.212-3.73l-1.945.465a26.794 26.794 0 0 0 1.309 4.03l1.848-.765Zm44.423 3.493a25.08 25.08 0 0 1-2.309 3.173l1.52 1.3a27.097 27.097 0 0 0 2.493-3.426l-1.704-1.047Zm-40.331 3.173a25.08 25.08 0 0 1-2.309-3.173l-1.704 1.047a27.097 27.097 0 0 0 2.493 3.426l1.52-1.3Zm5.948 5.084a25.08 25.08 0 0 1-3.173-2.309l-1.3 1.52a27.097 27.097 0 0 0 3.426 2.493l1.047-1.704Zm29.3-2.309a25.09 25.09 0 0 1-3.174 2.309l1.047 1.704a27.097 27.097 0 0 0 3.426-2.493l-1.3-1.52ZM50.66 59.815a24.798 24.798 0 0 1-3.73-1.212l-.766 1.848c1.296.537 2.643.977 4.031 1.309l.465-1.945Zm15.41-1.212c-1.2.498-2.446.904-3.73 1.212l.465 1.945a26.794 26.794 0 0 0 4.03-1.309l-.765-1.848ZM56.5 60.5c-.661 0-1.316-.026-1.965-.076l-.154 1.994a27.38 27.38 0 0 0 4.238 0l-.154-1.994c-.649.05-1.304.076-1.965.076Zm41.93 20.225c-.056.19-.115.382-.173.573-.12.394-.24.788-.347 1.185 1.214-6.1-3.12-12.157-7.465-16.006-.34-.301-.688-.595-1.041-.879a29.72 29.72 0 0 0-1.794-1.582C85.29 62.13 84.5 61.5 82.5 60c-3.081-2.31-4.808.687-3.34 1.465 3.84 2.035 5.51 3.322 8.829 6.36a33.302 33.302 0 0 1 5.699 6.805c1.426 2.262 2.73 4.75 3.227 7.4l.047.394c-.442-.657-.89-1.31-1.338-1.963-.892-1.299-1.783-2.597-2.623-3.929-.945-1.5-2.531-.31-1.442 1.256.25.36.496.724.742 1.088.536.793 1.072 1.585 1.653 2.346 1.21 2.057 2.705 3.945 4.212 5.814.25.308.834.3 1.142-.874.738-2.81 2.265-9.689 2.322-10.002.305-1.692-1.265-1.707-1.56-.725-.26.87-.534 1.735-.807 2.6v.001c-.282.895-.565 1.79-.833 2.689Zm21.312 6.919a21.26 21.26 0 0 1 4.758-.713h.001c1.609.057 3.206.296 4.76.714 8.095 2.176 13.959 8.93 14.941 17.207a1.9 1.9 0 0 0 1.698 1.665c4.401.433 9.102 2.943 12.576 6.713 3.051 3.311 4.841 7.179 5.177 11.187v.002c.118 1.394.04 2.826-.232 4.255l-.015.084c-.261 1.815-1.139 4.798-2.45 7.058-2.952 5.102-7.841 7.909-16.348 9.389-3.908.68-7.61 1.162-19.705 1.162l-.423.001-.382-.001c-12.095 0-15.797-.482-19.705-1.162-8.508-1.48-13.397-4.288-16.35-9.389-1.311-2.261-2.188-5.243-2.449-7.058l-.014-.084a15.713 15.713 0 0 1-.233-4.257c.336-4.008 2.127-7.877 5.179-11.188 3.471-3.769 8.172-6.279 12.574-6.712a1.9 1.9 0 0 0 1.698-1.665c.982-8.277 6.846-15.031 14.944-17.208Zm4.723 62.518h.073l.365-.001c11.292 0 15.714-.41 20.355-1.218 6.464-1.125 14.462-3.415 18.982-11.225 1.667-2.876 2.611-6.298 2.916-8.377.329-1.727.422-3.491.278-5.243-.408-4.855-2.54-9.502-6.168-13.44-3.768-4.089-8.624-6.845-13.514-7.713-1.65-9.154-8.384-16.513-17.504-18.964a24.974 24.974 0 0 0-5.525-.838 1.594 1.594 0 0 0-.228-.01 1.442 1.442 0 0 0-.21.01c-1.88.073-3.74.354-5.53.837-9.122 2.452-15.857 9.81-17.507 18.965-4.892.868-9.748 3.624-13.512 7.713-3.63 3.937-5.763 8.585-6.17 13.442a19.484 19.484 0 0 0 .279 5.241c.305 2.078 1.247 5.499 2.915 8.376 4.52 7.81 12.519 10.102 18.982 11.226 4.641.808 9.064 1.218 20.356 1.218l.367.001Zm12.634-27.383c-.034.619.959 1.873 1.804 2.497.945.698.93 1.899.37 2.656-.345.468-.834.712-1.34.712-.347 0-.703-.115-1.023-.352a8.068 8.068 0 0 1-.796-.677c-3.39 1.879-7.383 2.815-11.373 2.815-4.277 0-8.545-1.076-12.067-3.216-.353.294-.693.547-.981.76l-.003.003a1.65 1.65 0 0 1-.987.343c-.207 0-.414-.044-.612-.13-.564-.243-.976-.82-1.052-1.472a1.783 1.783 0 0 1 .714-1.65c1.188-.884 2.086-1.644 1.951-2.719-.118-.932.474-1.695 1.406-1.812.89-.111 1.939.459 2.08 1.579a4.575 4.575 0 0 1-.423 2.585c5.576 3.333 13.426 3.455 19.331.343-.394-.694-.666-1.466-.614-2.37a1.79 1.79 0 0 1 .985-1.52c.601-.302 1.34-.267 1.884.089.511.336.783.896.746 1.536Z" fill="#297EF1"/><path opacity=".722" fill-rule="evenodd" clip-rule="evenodd" d="M122.535 2.576a25.4 25.4 0 0 1 3.93 0l.154-1.994a27.344 27.344 0 0 0-4.238 0l.154 1.994Zm7.805.61a24.86 24.86 0 0 1 3.73 1.21l.766-1.847a26.826 26.826 0 0 0-4.031-1.309l-.465 1.945Zm-15.41 1.21a24.86 24.86 0 0 1 3.73-1.21l-.465-1.946a26.826 26.826 0 0 0-4.031 1.309l.766 1.847Zm22.633 1.784c1.119.687 2.18 1.46 3.173 2.309l1.3-1.52a27.142 27.142 0 0 0-3.426-2.493l-1.047 1.704Zm-29.299 2.309a25.037 25.037 0 0 1 3.173-2.309l-1.047-1.704a27.143 27.143 0 0 0-3.426 2.493l1.3 1.52Zm35.247 2.775a25.112 25.112 0 0 1 2.309 3.173l1.704-1.047a27.072 27.072 0 0 0-2.493-3.426l-1.52 1.3Zm-40.331 3.173a25.112 25.112 0 0 1 2.309-3.173l-1.52-1.3a27.072 27.072 0 0 0-2.493 3.426l1.704 1.047Zm44.424 3.493a24.9 24.9 0 0 1 1.211 3.73l1.945-.465a26.818 26.818 0 0 0-1.309-4.03l-1.847.765Zm-47.419 3.73a24.9 24.9 0 0 1 1.211-3.73l-1.847-.766a26.794 26.794 0 0 0-1.309 4.031l1.945.465Zm49.239 3.875a25.533 25.533 0 0 1 0 3.93l1.994.154a27.531 27.531 0 0 0 0-4.238l-1.994.154ZM99.5 27.5c0-.661.026-1.317.076-1.965l-1.994-.154a27.38 27.38 0 0 0 0 4.238l1.994-.154A25.382 25.382 0 0 1 99.5 27.5Zm49.315 5.84a24.895 24.895 0 0 1-1.211 3.73l1.847.766a26.818 26.818 0 0 0 1.309-4.031l-1.945-.465Zm-47.419 3.73a24.9 24.9 0 0 1-1.211-3.73l-1.945.465a26.794 26.794 0 0 0 1.309 4.03l1.847-.765Zm44.424 3.493a25.112 25.112 0 0 1-2.309 3.173l1.52 1.3a27.068 27.068 0 0 0 2.493-3.426l-1.704-1.047Zm-40.331 3.173a25.112 25.112 0 0 1-2.309-3.173l-1.704 1.047a27.068 27.068 0 0 0 2.493 3.426l1.52-1.3Zm5.948 5.084a25.032 25.032 0 0 1-3.173-2.309l-1.3 1.52a27.157 27.157 0 0 0 3.426 2.493l1.047-1.704Zm29.299-2.309a25.041 25.041 0 0 1-3.173 2.309l1.047 1.704a27.157 27.157 0 0 0 3.426-2.493l-1.3-1.52Zm-22.076 5.304a24.857 24.857 0 0 1-3.73-1.212l-.766 1.848a26.82 26.82 0 0 0 4.031 1.309l.465-1.945Zm15.41-1.212c-1.2.498-2.446.904-3.73 1.212l.465 1.945a26.82 26.82 0 0 0 4.031-1.309l-.766-1.848ZM124.5 52.5a25.42 25.42 0 0 1-1.965-.076l-.154 1.994a27.363 27.363 0 0 0 4.238 0l-.154-1.994a25.42 25.42 0 0 1-1.965.076Zm68-42c-.661 0-1.316.026-1.965.076l-.154-1.994a27.343 27.343 0 0 1 4.238 0l-.154 1.994a25.42 25.42 0 0 0-1.965-.076Zm9.57 1.896a24.857 24.857 0 0 0-3.73-1.21l.465-1.946c1.388.332 2.735.772 4.031 1.309l-.766 1.848Zm-15.41-1.21c-1.284.307-2.53.713-3.73 1.21l-.766-1.847a26.824 26.824 0 0 1 4.031-1.309l.465 1.945Zm22.076 5.303a25.032 25.032 0 0 0-3.173-2.309l1.047-1.704a27.157 27.157 0 0 1 3.426 2.493l-1.3 1.52Zm-29.299-2.309a25.032 25.032 0 0 0-3.173 2.309l-1.3-1.52a27.157 27.157 0 0 1 3.426-2.493l1.047 1.704Zm34.383 8.257a25.112 25.112 0 0 0-2.309-3.173l1.52-1.3a27.068 27.068 0 0 1 2.493 3.426l-1.704 1.047Zm-40.331-3.173a25.112 25.112 0 0 0-2.309 3.173l-1.704-1.047a27.068 27.068 0 0 1 2.493-3.426l1.52 1.3Zm43.326 10.396a24.9 24.9 0 0 0-1.211-3.73l1.847-.766a26.818 26.818 0 0 1 1.309 4.031l-1.945.465Zm-47.419-3.73a24.9 24.9 0 0 0-1.211 3.73l-1.945-.465a26.818 26.818 0 0 1 1.309-4.03l1.847.765ZM217.5 35.5c0-.661-.026-1.316-.076-1.965l1.994-.154a27.531 27.531 0 0 1 0 4.238l-1.994-.154c.05-.649.076-1.304.076-1.965Zm-49.924-1.965a25.533 25.533 0 0 0 0 3.93l-1.994.154a27.531 27.531 0 0 1 0-4.238l1.994.154Zm48.028 11.535a24.895 24.895 0 0 0 1.211-3.73l1.945.465a26.818 26.818 0 0 1-1.309 4.03l-1.847-.766Zm-47.419-3.73a24.9 24.9 0 0 0 1.211 3.73l-1.847.766a26.818 26.818 0 0 1-1.309-4.031l1.945-.465Zm43.326 10.396a25.112 25.112 0 0 0 2.309-3.173l1.704 1.047a27.068 27.068 0 0 1-2.493 3.426l-1.52-1.3Zm-40.331-3.173a25.112 25.112 0 0 0 2.309 3.173l-1.52 1.3a27.068 27.068 0 0 1-2.493-3.426l1.704-1.047Zm5.084 5.948c.993.85 2.054 1.622 3.173 2.309l-1.047 1.704a27.157 27.157 0 0 1-3.426-2.493l1.3-1.52Zm29.299 2.309a25.041 25.041 0 0 0 3.173-2.309l1.3 1.52a27.157 27.157 0 0 1-3.426 2.493l-1.047-1.704Zm-22.633 1.783c1.2.498 2.446.904 3.73 1.212l-.465 1.945a26.82 26.82 0 0 1-4.031-1.309l.766-1.848Zm15.41 1.212a24.857 24.857 0 0 0 3.73-1.212l.766 1.848a26.82 26.82 0 0 1-4.031 1.309l-.465-1.945Zm-7.805.609a25.42 25.42 0 0 0 3.93 0l.154 1.994a27.363 27.363 0 0 1-4.238 0l.154-1.994ZM222.5 67.5c-.661 0-1.316.026-1.965.076l-.154-1.994a27.363 27.363 0 0 1 4.238 0l-.154 1.994a25.42 25.42 0 0 0-1.965-.076Zm9.57 1.897a24.857 24.857 0 0 0-3.73-1.212l.465-1.945a26.82 26.82 0 0 1 4.031 1.309l-.766 1.847Zm-15.41-1.212c-1.284.308-2.53.714-3.73 1.212l-.766-1.848a26.82 26.82 0 0 1 4.031-1.309l.465 1.945Zm22.076 5.304a25.032 25.032 0 0 0-3.173-2.309l1.047-1.704a27.157 27.157 0 0 1 3.426 2.493l-1.3 1.52Zm-29.299-2.309a25.041 25.041 0 0 0-3.173 2.309l-1.3-1.52a27.157 27.157 0 0 1 3.426-2.493l1.047 1.704Zm34.383 8.257a25.112 25.112 0 0 0-2.309-3.173l1.52-1.3a27.076 27.076 0 0 1 2.493 3.426l-1.704 1.047Zm-40.331-3.173a25.112 25.112 0 0 0-2.309 3.173l-1.704-1.047a27.068 27.068 0 0 1 2.493-3.426l1.52 1.3Zm43.326 10.396a24.895 24.895 0 0 0-1.211-3.73l1.847-.766a26.818 26.818 0 0 1 1.309 4.031l-1.945.465Zm-47.419-3.73a24.895 24.895 0 0 0-1.211 3.73l-1.945-.465a26.818 26.818 0 0 1 1.309-4.03l1.847.765ZM247.5 92.5c0-.661-.026-1.317-.076-1.965l1.994-.154a27.531 27.531 0 0 1 0 4.238l-1.994-.154c.05-.648.076-1.304.076-1.965Zm-49.924-1.965a25.533 25.533 0 0 0 0 3.93l-1.994.154a27.531 27.531 0 0 1 0-4.238l1.994.154Zm48.028 11.535c.497-1.2.903-2.446 1.211-3.73l1.945.465a26.841 26.841 0 0 1-1.309 4.031l-1.847-.766Zm-47.419-3.73c.308 1.284.714 2.53 1.211 3.73l-1.847.766a26.841 26.841 0 0 1-1.309-4.031l1.945-.465Zm43.326 10.396a25.063 25.063 0 0 0 2.309-3.173l1.704 1.047a27.127 27.127 0 0 1-2.493 3.426l-1.52-1.3Zm-40.331-3.173a25.063 25.063 0 0 0 2.309 3.173l-1.52 1.3a27.127 27.127 0 0 1-2.493-3.426l1.704-1.047Zm5.084 5.948a25.063 25.063 0 0 0 3.173 2.309l-1.047 1.704a27.127 27.127 0 0 1-3.426-2.493l1.3-1.52Zm29.299 2.309a25.063 25.063 0 0 0 3.173-2.309l1.3 1.52a27.127 27.127 0 0 1-3.426 2.493l-1.047-1.704Zm-22.633 1.784c1.2.497 2.446.903 3.73 1.211l-.465 1.945a26.844 26.844 0 0 1-4.031-1.309l.766-1.847Zm15.41 1.211a24.96 24.96 0 0 0 3.73-1.211l.766 1.847a26.844 26.844 0 0 1-4.031 1.309l-.465-1.945Zm-7.805.609a25.571 25.571 0 0 0 3.93 0l.154 1.994a27.513 27.513 0 0 1-4.238 0l.154-1.994Zm-72.882-33.432c.309 1.174.893 1.18 1.142.874 1.507-1.87 3.002-3.757 4.213-5.815.575-.754 1.105-1.538 1.636-2.323h.001c.25-.372.501-.743.757-1.111 1.09-1.565-.496-2.755-1.442-1.255-.842 1.338-1.738 2.642-2.634 3.945l-.001.002-.001.002-.002.002v.001c-.443.645-.886 1.29-1.323 1.939l.011-.088.005-.05c.01-.084.02-.17.032-.255.497-2.651 1.8-5.137 3.227-7.4 1.582-2.511 3.476-4.857 5.699-6.806l.613-.54c2.568-2.258 3.662-3.22 6.914-4.614 1.506-.646.463-2.943-1.454-2.184-2.647 1.049-3.31 1.589-5.366 3.263l-.329.267a29.587 29.587 0 0 0-1.793 1.582c-.353.284-.7.577-1.041.879-4.345 3.848-8.68 9.907-7.466 16.006a38.548 38.548 0 0 0-.35-1.192v-.001l-.001-.003a170.679 170.679 0 0 0-1.012-3.284l-.001-.004-.001-.001v-.001c-.269-.853-.538-1.706-.795-2.563-.294-.982-1.865-.967-1.56.726.057.312 1.585 7.192 2.322 10.002Zm14.987 15.75c-.315.099-.719-.176-.391-1.136.784-2.3 2.899-7.795 3.003-8.04.57-1.318 1.668-.604 1.42.215-.215.71-.419 1.423-.624 2.136a140.289 140.289 0 0 1-.746 2.537l-.042.142-.043.143h-.001c-.095.319-.19.638-.294.953 1.972-4.81 7.788-7.03 12.594-7.7.373-.053.752-.095 1.128-.133a27.618 27.618 0 0 1 1.98-.273 24.43 24.43 0 0 1 7.454.404c1.685.353 1.248 2.329-.078 2.01-3.528-.862-5.568-.54-9.088.017l-.309.049a27.539 27.539 0 0 0-7.113 2.108c-2.039.912-4.095 2.046-5.665 3.66-.073.083-.145.168-.216.253.597-.248 1.197-.49 1.797-.732 1.235-.499 2.469-.997 3.683-1.542 1.351-.61 1.905.952.423 1.54-.335.134-.669.27-1.002.408h-.001c-.744.307-1.488.614-2.249.877-1.794.874-3.708 1.499-5.62 2.104Zm-79.49.143.075.252c.094.313.187.626.289.936-1.97-4.808-7.788-7.027-12.592-7.698a24.782 24.782 0 0 0-1.13-.133 25.621 25.621 0 0 0-1.98-.272 24.563 24.563 0 0 0-7.453.4c-1.685.356-.808 2.337.641 2.13 3.5-.5 5.12-.636 8.836-.054a27.895 27.895 0 0 1 7.111 2.109c2.038.915 4.095 2.046 5.667 3.662l.215.254c-.618-.257-1.238-.507-1.858-.757-1.216-.491-2.43-.98-3.623-1.518-1.351-.608-1.906.953-.424 1.54.343.136.685.277 1.026.418.737.303 1.474.607 2.228.868 1.794.873 3.706 1.498 5.619 2.104.315.099.72-.177.39-1.137-.784-2.298-2.896-7.794-3.001-8.038-.57-1.32-1.67-.605-1.422.215.214.706.418 1.415.621 2.123v.001a136.68 136.68 0 0 0 .765 2.595Zm42.699-29.643.001-.001c.406-.625.812-1.249 1.209-1.877.465-.737 1.771-.495 1.137.805-.116.239-2.927 5.479-4.172 7.606-.518.887-1.007.806-1.146.528-.84-1.71-1.664-3.425-2.214-5.24-.309-.677-.574-1.373-.84-2.07a71.682 71.682 0 0 0-.39-1.006c-.558-1.405 1.031-2.118 1.484-.788.409 1.199.869 2.377 1.329 3.556.221.567.442 1.134.658 1.703l.049-.317c.102-1.257-.099-4.488-.28-7.406-.133-2.143-.256-4.117-.24-5.014.045-2.583 1.649-2.768 2.033-.68.532 2.895.617 10.849-.785 13.605.185-.312.381-.62.577-.926l.25-.393c.438-.699.889-1.392 1.34-2.085Zm-32.885 89.264c2.649.927 9.448 1.729 14.93 2.05 14.962.875 35.872.4 44.733-1.213 8.931-1.624 9.331-4.082-13.373-5.301-19.328-1.037-41.89.442-46.716 2.642-1.295.591-1.223 1.247.425 1.822h.001Zm-67.428-91.93a25.382 25.382 0 0 1 3.928 0l.155-1.994a27.38 27.38 0 0 0-4.238 0l.154 1.994Zm7.804.61c1.284.307 2.53.713 3.73 1.21l.766-1.847a26.794 26.794 0 0 0-4.031-1.309l-.465 1.945Zm-15.41 1.21c1.2-.497 2.446-.903 3.73-1.21l-.465-1.946a26.794 26.794 0 0 0-4.03 1.309l.765 1.847Zm22.633 1.784a25.08 25.08 0 0 1 3.173 2.309l1.3-1.52a27.097 27.097 0 0 0-3.426-2.493l-1.047 1.704Zm-29.3 2.309a25.09 25.09 0 0 1 3.174-2.309l-1.047-1.704a27.101 27.101 0 0 0-3.426 2.493l1.3 1.52Zm35.248 2.775a25.09 25.09 0 0 1 2.309 3.173l1.704-1.047a27.105 27.105 0 0 0-2.493-3.426l-1.52 1.3ZM6.18 79.437a25.087 25.087 0 0 1 2.309-3.173l-1.52-1.3a27.082 27.082 0 0 0-2.493 3.426l1.704 1.047Zm44.423 3.493a24.793 24.793 0 0 1 1.212 3.73l1.945-.465a26.794 26.794 0 0 0-1.309-4.03l-1.848.765ZM3.185 86.66c.308-1.284.714-2.53 1.211-3.73l-1.847-.766a26.8 26.8 0 0 0-1.309 4.031l1.945.465Zm49.239 3.876a25.382 25.382 0 0 1 0 3.928l1.994.155a27.38 27.38 0 0 0 0-4.238l-1.994.154ZM2.5 92.5c0-.661.026-1.317.076-1.965l-1.994-.154a27.362 27.362 0 0 0 0 4.238l1.994-.154A25.362 25.362 0 0 1 2.5 92.5Zm49.315 5.84a24.836 24.836 0 0 1-1.212 3.73l1.848.766a26.818 26.818 0 0 0 1.309-4.031l-1.945-.465Zm-47.419 3.73a24.84 24.84 0 0 1-1.21-3.73l-1.946.465a26.824 26.824 0 0 0 1.309 4.031l1.847-.766Zm44.424 3.493a25.032 25.032 0 0 1-2.309 3.173l1.52 1.3a27.157 27.157 0 0 0 2.493-3.426l-1.704-1.047Zm-40.331 3.173a25.037 25.037 0 0 1-2.309-3.173l-1.704 1.047a27.143 27.143 0 0 0 2.493 3.426l1.52-1.3Zm5.948 5.084a25.112 25.112 0 0 1-3.173-2.309l-1.3 1.52a27.072 27.072 0 0 0 3.426 2.493l1.047-1.704Zm29.3-2.309a25.112 25.112 0 0 1-3.174 2.309l1.047 1.704a27.068 27.068 0 0 0 3.426-2.493l-1.3-1.52Zm-22.077 5.304a24.9 24.9 0 0 1-3.73-1.211l-.766 1.847c1.296.537 2.643.977 4.031 1.309l.465-1.945Zm15.41-1.211a24.9 24.9 0 0 1-3.73 1.211l.465 1.945a26.818 26.818 0 0 0 4.03-1.309l-.765-1.847ZM27.5 117.5c-.661 0-1.317-.026-1.965-.076l-.154 1.994a27.531 27.531 0 0 0 4.238 0l-.154-1.994c-.648.05-1.304.076-1.965.076Z" fill="#BBD9FD"/><path fill-rule="evenodd" clip-rule="evenodd" d="M53.388 24.971a3.125 3.125 0 1 1 6.25 0 3.125 3.125 0 0 1-6.25 0m4.378 11.8c1.882-3.2 5.218-9.233 5.218-11.8a6.471 6.471 0 0 0-12.943 0c0 2.567 3.336 8.6 5.218 11.8a1.454 1.454 0 0 0 2.507 0" fill="#335C9E"/><mask id="b" style="mask-type:alpha" maskUnits="userSpaceOnUse" x="47" y="31" width="23" height="20"><path fill-rule="evenodd" clip-rule="evenodd" d="M47.5 31.533h21.973v18.886H47.5V31.533Z" fill="#fff"/></mask><g mask="url(#b)"><path fill-rule="evenodd" clip-rule="evenodd" d="M68.62 46.702a493.936 493.936 0 0 0-4.675-4.122 8.961 8.961 0 0 0 1.58-5.091 8.974 8.974 0 0 0-2.254-5.956l-.059.123a67.632 67.632 0 0 1-1.219 2.405c.624.995.987 2.17.987 3.428a6.474 6.474 0 0 1-6.467 6.467 6.474 6.474 0 0 1-6.468-6.468c0-1.258.363-2.432.987-3.427-.417-.786-.832-1.6-1.219-2.405l-.058-.123a8.975 8.975 0 0 0-2.255 5.956c0 4.97 4.043 9.012 9.013 9.012a8.96 8.96 0 0 0 5.113-1.595c.707.835 3.666 4.327 4.231 4.959.755.844 2.37.666 3.093-.15.656-.741.846-1.953-.33-3.013" fill="#335C9E"/></g><g clip-path="url(#c)"><path d="M176.5 19.5h32v32h-32v-32Z" fill="#0C131F"/><path d="M208.5 26.789V44.21a8.705 8.705 0 0 1-8.711-8.711 8.705 8.705 0 0 1 8.711-8.711Z" fill="#fff"/><path fill-rule="evenodd" clip-rule="evenodd" d="M176.5 44.211V26.79h12.988c4.811 0 8.701 3.911 8.701 8.721 0 4.81-3.89 8.701-8.701 8.701H176.5Zm12.444-2.489a6.223 6.223 0 1 0 0-12.445 6.223 6.223 0 0 0 0 12.445Z" fill="#8DE8FE"/></g><path fill-rule="evenodd" clip-rule="evenodd" d="M43.319 95.1c-.8-4.933-5.467-8.2-10.4-7.4l1.467-8.267-5.267-.933c-.467 1-2.4 5.533-3.4 10.6 1.933 1.333 3.4 3.4 3.8 5.933.466 2.667-.333 5.267-1.933 7.267.4.467.866.933 1.333 1.333 2.066 1.6 4.533 2.267 6.933 1.8 5-.733 8.334-5.4 7.467-10.333" fill="#054752"/><path fill-rule="evenodd" clip-rule="evenodd" d="m25.652 89.7.134-.533c-1.867-1.267-4.2-1.867-6.6-1.467l1.466-8.2-5.266-.933c-.467 1-2.6 5.866-3.467 11.133-.733 4.267-.667 8.867 1.533 12.067.467.666 1.067 1.333 1.8 1.866 2.067 1.6 4.534 2.267 7 1.8 2.2-.333 4.134-1.533 5.467-3.133l-.4-.533c-2.333-3.2-2.4-7.734-1.667-12.067" fill="#2DBEFF"/><path fill-rule="evenodd" clip-rule="evenodd" d="M29.586 95.1c-.467-2.533-1.867-4.6-3.8-5.933l-.134.533c-.733 4.267-.666 8.867 1.534 12.067l.4.533c1.667-1.933 2.466-4.533 2-7.2" fill="#9EF769"/><path fill-rule="evenodd" clip-rule="evenodd" d="M126.1 13.211c-3.956 0-7.644 1.778-10.133 4.934a12.673 12.673 0 0 0-2.667 7.777v2.356c0 1.022-.4 2-1.067 2.71-.533.534-1.2.934-1.911 1.112.267.667.889 1.689 2 2.8a11.266 11.266 0 0 0 3.245 2.355v-.044a3.986 3.986 0 0 1 3.377-1.822c.267 0 .489.044.756.089a3.992 3.992 0 0 1 3.156 3.11h3.288c3.423 0 6.667-1.421 9.023-3.733 3.644-3.644 4.755-9.11 2.755-13.822-2-4.755-6.622-7.822-11.822-7.822Z" fill="#fff"/><path fill-rule="evenodd" clip-rule="evenodd" d="M126.1 11.611c-4.4 0-8.533 1.956-11.333 5.467a14.285 14.285 0 0 0-3.067 8.889v2.31c0 1.2-.844 2.312-2.489 2.4-.4 0-.711.312-.755.712-.045 1.067 1.111 3.067 2.711 4.667 1.111 1.11 2.4 2 3.777 2.71-.444 2.445 1.467 4.667 3.956 4.667h.044a4 4 0 0 0 3.912-3.155h3.333c.355 1.822 1.955 3.155 3.911 3.155.444 0 .933-.089 1.378-.222 1.111-.355 1.955-1.2 2.355-2.311a4.286 4.286 0 0 0 0-2.889c.889-.578 1.689-1.2 2.445-1.956a14.158 14.158 0 0 0 4.222-10.088c0-3.822-1.511-7.378-4.222-10.09-2.711-2.8-6.356-4.266-10.178-4.266Zm0 1.6c5.156 0 9.822 3.111 11.822 7.867 2 4.755.889 10.222-2.755 13.822a12.783 12.783 0 0 1-9.023 3.733h-3.288c-.312-1.6-1.556-2.8-3.156-3.11-.267-.045-.489-.09-.756-.09a4.043 4.043 0 0 0-3.377 1.822v.045c-1.2-.622-2.267-1.422-3.245-2.355-1.111-1.112-1.733-2.178-2-2.8.756-.178 1.378-.578 1.911-1.112.667-.755 1.067-1.689 1.067-2.71v-2.356c0-2.8.933-5.556 2.667-7.778 2.489-3.245 6.177-4.978 10.133-4.978Z" fill="#000"/><path fill-rule="evenodd" clip-rule="evenodd" d="M132.5 21.122c-.889 0-1.6.711-1.6 1.6 0 .89.711 1.6 1.6 1.6.889 0 1.6-.71 1.6-1.6 0-.889-.711-1.6-1.6-1.6ZM122.9 21.122c-.889 0-1.6.711-1.6 1.6 0 .89.711 1.6 1.6 1.6.889 0 1.6-.71 1.6-1.6 0-.889-.711-1.6-1.6-1.6ZM122.633 27.478c-.577 0-.977.577-.711 1.11a6.39 6.39 0 0 0 5.778 3.645 6.39 6.39 0 0 0 5.778-3.644c.222-.534-.134-1.111-.711-1.111a.791.791 0 0 0-.711.444 4.829 4.829 0 0 1-4.312 2.711c-1.866 0-3.555-1.066-4.311-2.71-.177-.267-.444-.445-.8-.445Z" fill="#000"/><path fill-rule="evenodd" clip-rule="evenodd" d="M234.459 103.335c.307 0 .614 0 1.008-.044v4.947c-.832.175-1.488.262-2.408.262-4.202 0-6.829-2.451-6.829-6.61V76.5h5.735v24.427c0 1.882 1.05 2.408 2.494 2.408Zm-16.284-19.13c0 .437 0 .832-.088 1.182h-5.734c.394-.525.568-1.314.568-2.19v-2.976h5.254v3.984Zm-9.675 2.452v5.165h2.189c3.896 0 6.26-2.058 7.18-5.165H208.5Zm10.638 0c-.525 2.232-1.532 3.808-3.546 5.165h6.917v-5.165h-3.371Zm-6.742 6.434v8.756c0 4.158 2.627 6.653 6.829 6.653 2.145 0 3.283-.525 3.283-.525v-4.815c-.306.087-1.094.175-1.794.175-1.664 0-2.54-.613-2.54-2.496v-7.748h-5.778Z" fill="#00D5B5"/></g><defs><clipPath id="a"><path fill="#fff" transform="translate(.5 .5)" d="M0 0h249v162H0z"/></clipPath><clipPath id="c"><path d="M176.5 25.5a6 6 0 0 1 6-6h20a6 6 0 0 1 6 6v20a6 6 0 0 1-6 6h-20a6 6 0 0 1-6-6v-20Z" fill="#fff"/></clipPath></defs></svg>