<svg width="16" height="16" viewBox="0 0 16 16" xmlns="http://www.w3.org/2000/svg">
<path fill-rule="evenodd" clip-rule="evenodd" d="M11 5C12.6569 5 14 6.34315 14 8C14 9.65685 12.6569 11 11 11H3C2.44771 11 2 11.4477 2 12C2 12.5523 2.44771 13 3 13H11C13.7614 13 16 10.7614 16 8C16 5.23858 13.7614 3 11 3H3.41421L4.70711 1.70711C5.09763 1.31658 5.09763 0.683417 4.70711 0.292893C4.31658 -0.0976311 3.68342 -0.0976311 3.29289 0.292893L0.292893 3.29289C-0.0976315 3.68342 -0.0976315 4.31658 0.292893 4.70711L3.29289 7.70711C3.68342 8.09763 4.31658 8.09763 4.70711 7.70711C5.09763 7.31658 5.09763 6.68342 4.70711 6.29289L3.41421 5H11Z" />
</svg>
