<svg width="16" height="16" viewBox="0 0 16 16" xmlns="http://www.w3.org/2000/svg">
<path fill-rule="evenodd" clip-rule="evenodd" d="M12.64 0.64C11.2 0.072 9.488 0 8 0C6.512 0 4.8 0.072 3.36 0.64C1.224 1.472 0 3.24 0 5.488V16H16V5.488C16 3.24 14.776 1.472 12.64 0.64ZM13 5.85714V10.8571C13 11.9278 12.2148 12.8151 11.1888 12.9745L12.2857 14.0714V14.4286H10.8571L9.42857 13H6.57143L5.14286 14.4286H3.71429V14.0714L4.81122 12.9745C3.78523 12.8151 3 11.9278 3 10.8571V5.85714C3 3.71429 5.14286 3 8 3C10.8571 3 13 3.71429 13 5.85714ZM4.42857 5.14286V8H11.5714V5.14286H4.42857ZM6.57143 10.5C6.57143 11.0917 6.09173 11.5714 5.5 11.5714C4.90827 11.5714 4.42857 11.0917 4.42857 10.5C4.42857 9.90827 4.90827 9.42857 5.5 9.42857C6.09173 9.42857 6.57143 9.90827 6.57143 10.5ZM10.5 11.5714C11.0917 11.5714 11.5714 11.0917 11.5714 10.5C11.5714 9.90827 11.0917 9.42857 10.5 9.42857C9.90827 9.42857 9.42857 9.90827 9.42857 10.5C9.42857 11.0917 9.90827 11.5714 10.5 11.5714Z" />
</svg>
