<svg width="16" height="16" viewBox="0 0 16 16" xmlns="http://www.w3.org/2000/svg">
<path fill-rule="evenodd" clip-rule="evenodd" d="M11 0C13.1422 0 14.8911 1.68397 14.9951 3.80036L15 4V9C15 9.51284 14.614 9.93551 14.1166 9.99327L14 10H12.5V14.75C12.5 15.4404 11.9404 16 11.25 16C10.5596 16 10 15.4404 10 14.75V1C10 0.487164 10.386 0.0644928 10.8834 0.00672773L11 0ZM7 0C7.51284 0 7.93551 0.38604 7.99327 0.883379L8 1V5C8 6.57237 6.79034 7.86221 5.25087 7.98966L5.25 14.75C5.25 15.4404 4.69036 16 4 16C3.30964 16 2.75 15.4404 2.75 14.75L2.75013 7.98974C1.26813 7.86755 0.0915336 6.66814 0.00509269 5.17627L0 5V1C0 0.447715 0.447715 0 1 0C1.51284 0 1.93551 0.38604 1.99327 0.883379L2 1V5H3V1C3 0.447715 3.44772 0 4 0C4.51284 0 4.93551 0.38604 4.99327 0.883379L5 1V5H6V1C6 0.447715 6.44772 0 7 0Z" />
</svg>
