<svg width="24" height="24" fill="none" xmlns="http://www.w3.org/2000/svg"><path d="M7.165 8.244C7.585 6.01 9.581 4.297 12 4.297s4.415 1.713 4.835 3.947l.143.76.76.14c2.295.418 4.012 2.396 4.012 4.748 0 .555-.096 1.089-.272 1.586l1.704 1.704a6.98 6.98 0 0 0 .818-3.29c0-3.222-2.173-5.925-5.131-6.79C17.984 4.17 15.236 2.047 12 2.047c-3.236 0-5.984 2.123-6.869 5.055C2.173 7.967 0 10.67 0 13.892c0 3.926 3.224 7.08 7.167 7.08H8.25v-2.25H7.167c-2.731 0-4.917-2.177-4.917-4.83 0-2.352 1.717-4.33 4.012-4.749l.76-.139.143-.76Z" fill="#1D212A" fill-opacity=".72"/><path d="M19.499 19.567a1.5 1.5 0 0 1-1.5 1.5h-6a1.5 1.5 0 0 1 0-3h2.368l-4.993-4.993a1.508 1.508 0 0 1 2.018-2.236l.114.104 4.993 4.992v-2.367a1.5 1.5 0 1 1 3 0v6Z" fill="#EA3F3F"/></svg>