<svg width="16" height="16" viewBox="0 0 16 16" xmlns="http://www.w3.org/2000/svg">
<path fill-rule="evenodd" clip-rule="evenodd" d="M4.5 13C5.32843 13 6 13.6716 6 14.5C6 15.3284 5.32843 16 4.5 16C3.67157 16 3 15.3284 3 14.5C3 13.6716 3.67157 13 4.5 13ZM12.5 13C13.3284 13 14 13.6716 14 14.5C14 15.3284 13.3284 16 12.5 16C11.6716 16 11 15.3284 11 14.5C11 13.6716 11.6716 13 12.5 13ZM2.49996 1C2.98882 1 3.40602 1.35344 3.48637 1.83564L3.847 4H14C14.5523 4 15 4.44772 15 5C15 5.05508 14.9954 5.11007 14.9864 5.1644L14.1257 10.3288C13.9649 11.2932 13.1306 12 12.1529 12H4.84696C3.86936 12 3.03502 11.2933 2.87421 10.329L1.652 3H1C0.487164 3 0.0644928 2.61396 0.00672773 2.11662L0 2C0 1.48716 0.38604 1.06449 0.883379 1.00673L1 1H2.49996Z" />
</svg>
