<svg width="16" height="16" viewBox="0 0 16 16" xmlns="http://www.w3.org/2000/svg">
<path fill-rule="evenodd" clip-rule="evenodd" d="M16 13.5C16 14.33 15.32 15 14.5 15C13.7189 15 13.0794 14.3976 13.0069 13.6431L13 13.5V13H3.00003V13.5C3.00003 14.33 2.33003 15 1.50003 15C0.71885 15 0.0794038 14.4065 0.00687781 13.6447L2.65946e-05 13.5L-0.000854492 6.98651C0.000298029 6.90775 0.010949 6.8278 0.032018 6.74801L0.0715499 6.62861L2.07155 1.62861C2.20823 1.28692 2.51974 1.0511 2.87877 1.00735L3.00003 1H13C13.368 1 13.7027 1.20165 13.8766 1.51875L13.9285 1.62861L15.9285 6.62861C15.9723 6.73809 15.9953 6.84917 16.0001 6.95827L16 13.5ZM3.50003 8C2.67003 8 2.00003 8.67 2.00003 9.5C2.00003 10.33 2.67003 11 3.50003 11C4.33003 11 5.00003 10.33 5.00003 9.5C5.00003 8.67 4.33003 8 3.50003 8ZM12.5 8C11.67 8 11 8.67 11 9.5C11 10.33 11.67 11 12.5 11C13.33 11 14 10.33 14 9.5C14 8.67 13.33 8 12.5 8ZM12.324 3H3.67703L2.47703 6H13.524L12.324 3Z" />
</svg>
