<svg width="16" height="16" viewBox="0 0 16 16"xmlns="http://www.w3.org/2000/svg">
<path fill-rule="evenodd" clip-rule="evenodd" d="M1 11C1 11.88 1.39 12.67 2 13.22V14.5C2 15.33 2.67 16 3.5 16C4.33 16 5 15.33 5 14.5V14H11V14.5C11 15.32 11.67 16 12.5 16C13.32 16 14 15.33 14 14.5V13.22C14.61 12.67 15 11.88 15 11V4C15 1 12 0 8 0C4 0 1 1 1 4V11ZM4.5 12C3.67 12 3 11.33 3 10.5C3 9.67 3.67 9 4.5 9C5.33 9 6 9.67 6 10.5C6 11.33 5.33 12 4.5 12ZM11.5 12C10.67 12 10 11.33 10 10.5C10 9.67 10.67 9 11.5 9C12.33 9 13 9.67 13 10.5C13 11.33 12.33 12 11.5 12ZM13 7H3V3H13V7Z" />
</svg>
