<svg width="16" height="16" viewBox="0 0 16 16" xmlns="http://www.w3.org/2000/svg">
<path fill-rule="evenodd" clip-rule="evenodd" d="M8.00002 12C8.82845 12 9.50002 12.6716 9.50002 13.5C9.50002 14.3284 8.82845 15 8.00002 15C7.1716 15 6.50002 14.3284 6.50002 13.5C6.50002 12.6716 7.1716 12 8.00002 12ZM8.96812 1.10088C10.7451 1.47188 12.1501 2.95788 12.4401 4.74988C12.7991 6.98088 11.5181 8.97188 9.61212 9.70288L9.50012 9.74188V10.9999H6.50012V8.49988C6.50012 7.72059 7.09539 7.07948 7.85573 7.00675L8.00012 6.99988C8.82812 6.99988 9.50012 6.32888 9.50012 5.49988C9.50012 4.67188 8.82812 3.99988 8.00012 3.99988C7.22012 3.99988 6.57912 4.59488 6.50712 5.35488L6.50012 5.49988H3.50012C3.50012 2.69888 6.06012 0.494882 8.96812 1.10088Z" />
</svg>
