<svg width="16" height="16" xmlns="http://www.w3.org/2000/svg"><path d="M4.36 1.24 3 6H1a1 1 0 1 0 0 2h14a1 1 0 1 0 0-2h-2l-1.36-4.76A1.7 1.7 0 0 0 9.062.291L8 1 6.938.292a1.7 1.7 0 0 0-2.578.947Z"/><path fill-rule="evenodd" clip-rule="evenodd" d="M6.84 13.549A3.502 3.502 0 0 1 0 12.5a3.5 3.5 0 0 1 6.76-1.274A3.49 3.49 0 0 1 8 11c.436 0 .854.08 1.24.226a3.501 3.501 0 1 1-.08 2.323A1.495 1.495 0 0 0 8 13c-.467 0-.883.212-1.16.549ZM3.5 14a1.5 1.5 0 1 0 0-3 1.5 1.5 0 0 0 0 3Zm9 0a1.5 1.5 0 1 0 0-3 1.5 1.5 0 0 0 0 3Z"/></svg>