<svg width="16" height="16" viewBox="0 0 16 16" xmlns="http://www.w3.org/2000/svg">
<path fill-rule="evenodd" clip-rule="evenodd" d="M12.9993 9.102L13 11.9446C13 12.1252 12.9026 12.2918 12.7452 12.3804L8.24516 14.9121C8.09294 14.9977 7.90706 14.9977 7.75484 14.9121L3.25484 12.3804C3.09742 12.2918 3 12.1252 3 11.9446L2.9993 9.102L7.03054 11.2575C7.63525 11.5808 8.36475 11.5808 8.96946 11.2575L12.9993 9.102ZM8.16075 1.0235L8.26216 1.06528L15.7273 5.05696C15.8127 5.1026 15.8832 5.16965 15.9312 5.25079C16.0599 5.46829 16.0021 5.73734 15.8069 5.89111L15.7273 5.94304L8.26216 9.93472C8.13194 10.0044 7.97868 10.0183 7.83925 9.9765L7.73784 9.93472L2 6.867V11C2 11.5523 1.55228 12 1 12C0.447715 12 1.52471e-09 11.5523 1.52471e-09 11V5.5C-1.17714e-05 5.35234 0.0681539 5.20792 0.191876 5.10987L0.272674 5.05696L7.73784 1.06528C7.84202 1.00957 7.96093 0.98952 8.07573 1.00512L8.16075 1.0235Z" />
</svg>
