<svg width="16" height="16" viewBox="0 0 16 16" xmlns="http://www.w3.org/2000/svg">
<path fill-rule="evenodd" clip-rule="evenodd" d="M15 4V11C15 12.4989 13.9007 13.7411 12.4643 13.9643L14 15.5V16H12L10 14H6L4 16H2V15.5L3.53571 13.9643C2.09932 13.7411 1 12.4989 1 11V4C1 1 4 0 8 0C12 0 15 1 15 4ZM3 7H7V3H3V7ZM9 3V7H13V3H9ZM6 10.5C6 11.3284 5.32843 12 4.5 12C3.67157 12 3 11.3284 3 10.5C3 9.67157 3.67157 9 4.5 9C5.32843 9 6 9.67157 6 10.5ZM11.5 12C12.3284 12 13 11.3284 13 10.5C13 9.67157 12.3284 9 11.5 9C10.6716 9 10 9.67157 10 10.5C10 11.3284 10.6716 12 11.5 12Z" />
</svg>
