<svg width="16" height="16" viewBox="0 0 16 16" fill="none" xmlns="http://www.w3.org/2000/svg">
<g id="icons/16/icon-question-mark">
<path id="Shape" fill-rule="evenodd" clip-rule="evenodd" d="M8 16C3.58172 16 0 12.4183 0 8C0 3.58172 3.58172 0 8 0C12.4183 0 16 3.58172 16 8C16 12.4183 12.4183 16 8 16ZM9 8.80211C10.1218 8.35456 11 7.20899 11 6C11 4.44772 9.55228 3 8 3C6.44772 3 5 4.44772 5 6H7C7 5.55228 7.55228 5 8 5C8.44772 5 9 5.55228 9 6C9 6.44772 8.44772 7 8 7C7.44772 7 7 7.44772 7 8V10H9V8.80211ZM7 11V13H9V11H7Z" fill="#1D212A" fill-opacity="0.72"/>
</g>
</svg>
