<svg width="16" height="16" viewBox="0 0 16 16" xmlns="http://www.w3.org/2000/svg">
<path d="M14.9825 9.2725L15.7025 8.5525C16.0925 8.1625 16.0925 7.5325 15.7025 7.1425L15.6825 7.1225C15.2925 6.7325 14.6625 6.7325 14.2725 7.1225L11.4125 9.9825L6.0125 4.5825L8.8725 1.7225C9.2625 1.3325 9.2625 0.7025 8.8725 0.3125L8.8525 0.2925C8.4625 -0.0975 7.8325 -0.0975 7.4425 0.2925L6.7225 1.0125L6.0025 0.2925C5.6125 -0.0975 4.9725 -0.0975 4.5825 0.2925L3.1525 1.7225L2.4325 1.0025C2.0425 0.6125 1.3925 0.6125 1.0025 1.0025C0.6125 1.3925 0.6125 2.0425 1.0025 2.4325L1.7225 3.1525L0.2925 4.5825C-0.0975 4.9725 -0.0975 5.6025 0.2925 5.9925L1.0125 6.7125L0.2925 7.4425C-0.0975 7.8325 -0.0975 8.4625 0.2925 8.8525L0.3125 8.8725C0.7025 9.2625 1.3325 9.2625 1.7225 8.8725L4.5825 6.0125L9.9825 11.4125L7.1225 14.2725C6.7325 14.6625 6.7325 15.2925 7.1225 15.6825L7.1425 15.7025C7.5325 16.0925 8.1625 16.0925 8.5525 15.7025L9.2725 14.9825L9.9925 15.7025C10.3825 16.0925 11.0125 16.0925 11.4025 15.7025L12.8325 14.2725L13.5525 14.9925C13.9425 15.3825 14.5925 15.3825 14.9825 14.9925C15.3725 14.6025 15.3725 13.9525 14.9825 13.5625L14.2625 12.8425L15.7025 11.4125C16.0925 11.0225 16.0925 10.3925 15.7025 10.0025L14.9825 9.2725Z" />
</svg>
