<svg width="16" height="17" viewBox="0 0 16 17" xmlns="http://www.w3.org/2000/svg">
<path fill-rule="evenodd" clip-rule="evenodd" d="M10.602 3.66294C10.2731 3.8827 9.88647 4 9.49091 4C8.96047 4 8.45177 3.78929 8.07669 3.41421C7.70162 3.03914 7.49091 2.53043 7.49091 2C7.49091 1.60444 7.6082 1.21776 7.82797 0.88886C8.04773 0.559962 8.36009 0.303617 8.72554 0.152242C9.09099 0.000866563 9.49312 -0.0387401 9.88109 0.0384303C10.269 0.115601 10.6254 0.306082 10.9051 0.585787C11.1848 0.865492 11.3753 1.22186 11.4525 1.60982C11.5296 1.99778 11.49 2.39992 11.3387 2.76537C11.1873 3.13082 10.9309 3.44318 10.602 3.66294ZM10.4807 7.39386C10.9048 7.75478 11.435 7.96757 11.9909 7.99998C12.2561 7.99998 12.5105 8.10533 12.698 8.29287C12.8855 8.48041 12.9909 8.73476 12.9909 8.99998C12.9909 9.26519 12.8855 9.51955 12.698 9.70708C12.5105 9.89462 12.2561 9.99998 11.9909 9.99998C11.4289 10.0037 10.8722 9.89107 10.3558 9.66905C9.83953 9.44703 9.37478 9.12048 8.9909 8.70998L8.3009 10.29L10.6309 12.23C10.7438 12.324 10.8346 12.4417 10.8968 12.5748C10.959 12.7079 10.9911 12.8531 10.9909 13V15C10.9909 15.2652 10.8855 15.5195 10.698 15.7071C10.5105 15.8946 10.2561 16 9.9909 16C9.72568 16 9.47133 15.8946 9.28379 15.7071C9.09626 15.5195 8.9909 15.2652 8.9909 15V13.47L6.4109 11.35L4.9309 15.35C4.83807 15.5993 4.65001 15.8015 4.40809 15.9121C4.16617 16.0228 3.8902 16.0328 3.6409 15.94C3.3916 15.8471 3.18938 15.6591 3.07873 15.4172C2.96809 15.1752 2.95807 14.8993 3.0509 14.65L5.8709 6.99998L4.7509 7.31998L3.9309 9.31998C3.83277 9.56663 3.64068 9.7642 3.39688 9.86922C3.15308 9.97424 2.87755 9.97811 2.6309 9.87998C2.38425 9.78185 2.18668 9.58975 2.08166 9.34596C1.97664 9.10216 1.97277 8.82663 2.0709 8.57998L3.0709 6.07998C3.12824 5.93757 3.2176 5.81028 3.33206 5.70796C3.44651 5.60565 3.58298 5.53106 3.7309 5.48998L7.0909 4.48998H7.2109C7.32042 4.47551 7.43138 4.47551 7.5409 4.48998H7.6409C8.08988 4.50248 8.5238 4.65464 8.88227 4.92529C9.24073 5.19593 9.50591 5.57158 9.6409 5.99998C9.76177 6.54357 10.0566 7.03293 10.4807 7.39386Z" />
</svg>
