<svg width="16" height="16" viewBox="0 0 16 16" fill="none" xmlns="http://www.w3.org/2000/svg">
<path fill-rule="evenodd" clip-rule="evenodd" d="M15.5388 0.461157C14.915 -0.162677 13.9003 -0.152252 13.2895 0.484302L9.87894 4.08068L2.02506 1.1355C1.83777 1.06526 1.62671 1.11098 1.48527 1.25242L0.149401 2.58829C-0.0498005 2.78749 -0.0498005 3.11046 0.149401 3.30966C0.18146 3.34172 0.217649 3.36936 0.257014 3.39185L6.81841 7.1412L3.24779 10.7118L1.50892 10.2771C1.32376 10.2308 1.12825 10.2917 1.00219 10.4351L0.140789 11.4144C-0.0452691 11.6259 -0.0246203 11.9482 0.18691 12.1343C0.227083 12.1696 0.272564 12.1984 0.321687 12.2196L2.7377 13.2622L3.78034 15.6782C3.89196 15.9369 4.19213 16.0561 4.45079 15.9445C4.49991 15.9233 4.54539 15.8945 4.58557 15.8591L5.56489 14.9977C5.7082 14.8717 5.76915 14.6762 5.72286 14.491L5.28814 12.7521L8.85876 9.18154L12.6081 15.7429C12.7479 15.9875 13.0595 16.0725 13.3041 15.9327C13.3434 15.9102 13.3796 15.8826 13.4117 15.8505L14.7476 14.5146C14.889 14.3732 14.9347 14.1621 14.8645 13.9749L11.9193 6.12103L15.5157 2.71054C16.1523 2.09965 16.1627 1.08502 15.5388 0.461157Z" fill="#1D212A" fill-opacity="0.72"/>
</svg>
