<svg width="16" height="16" viewBox="0 0 16 16" fill="none" xmlns="http://www.w3.org/2000/svg">
<path fill-rule="evenodd" clip-rule="evenodd" d="M16 13.5C16 14.33 15.32 15 14.5 15C13.7188 15 13.0794 14.3976 13.0068 13.6431L13 13.5V13H3V13.5C3 14.33 2.33 15 1.5 15C0.71882 15 0.0793732 14.4065 0.00684729 13.6447L-3.92296e-06 13.5L-0.00088501 6.98651C0.000267512 6.90775 0.0109185 6.8278 0.0319874 6.74801L0.0715194 6.62861L2.07152 1.62861C2.2082 1.28692 2.51971 1.0511 2.87874 1.00735L3 1H13C13.368 1 13.7027 1.20165 13.8766 1.51875L13.9285 1.62861L15.9285 6.62861C15.9723 6.73809 15.9953 6.84917 16.0001 6.95827L16 13.5ZM3.5 8C2.67 8 2 8.67 2 9.5C2 10.33 2.67 11 3.5 11C4.33 11 5 10.33 5 9.5C5 8.67 4.33 8 3.5 8ZM12.5 8C11.67 8 11 8.67 11 9.5C11 10.33 11.67 11 12.5 11C13.33 11 14 10.33 14 9.5C14 8.67 13.33 8 12.5 8ZM12.324 3H3.677L2.477 6H13.524L12.324 3Z" fill="#1D212A" fill-opacity="0.72"/>
</svg>
