<svg width="16" height="16" viewBox="0 0 16 16" xmlns="http://www.w3.org/2000/svg">
<path d="M12.5 3C12.5 4.10457 11.6046 5 10.5 5C9.39543 5 8.5 4.10457 8.5 3C8.5 1.89543 9.39543 1 10.5 1C11.6046 1 12.5 1.89543 12.5 3Z" />
<path d="M8.45697 7.54303C8.63931 7.69896 8.83598 7.85182 9.04516 7.9962C9.81647 8.52854 10.8381 9 12 9C12.5523 9 13 8.55228 13 8C13 7.44772 12.5523 7 12 7C11.3793 7 10.7507 6.74323 10.1812 6.35018C9.61222 5.95746 9.1823 5.48301 8.97738 5.18643C8.72314 4.81846 8.27236 4.5 7.70064 4.5C7.30696 4.5 6.9294 4.65639 6.65102 4.93476L4.44715 7.13864C4.16084 7.42494 4 7.81325 4 8.21815C4 8.72859 4.2551 9.20525 4.67982 9.48839L7 11.0352V14C7 14.5523 7.44772 15 8 15C8.55228 15 9 14.5523 9 14V10.5C9 10.1656 8.8329 9.85342 8.5547 9.66795L7.22111 8.77889L8.45697 7.54303Z" />
<path fill-rule="evenodd" clip-rule="evenodd" d="M16 13C16 14.6569 14.6569 16 13 16C11.3431 16 10 14.6569 10 13C10 11.3431 11.3431 10 13 10C14.6569 10 16 11.3431 16 13ZM14.5 13C14.5 13.8284 13.8284 14.5 13 14.5C12.1716 14.5 11.5 13.8284 11.5 13C11.5 12.1716 12.1716 11.5 13 11.5C13.8284 11.5 14.5 12.1716 14.5 13Z" />
<path fill-rule="evenodd" clip-rule="evenodd" d="M3 16C4.65685 16 6 14.6569 6 13C6 11.3431 4.65685 10 3 10C1.34315 10 0 11.3431 0 13C0 14.6569 1.34315 16 3 16ZM3 14.5C3.82843 14.5 4.5 13.8284 4.5 13C4.5 12.1716 3.82843 11.5 3 11.5C2.17157 11.5 1.5 12.1716 1.5 13C1.5 13.8284 2.17157 14.5 3 14.5Z" />
</svg>
