<svg xmlns="http://www.w3.org/2000/svg" width="96" height="96" fill="none"><g clip-path="url(#a)"><path stroke="#FFD799" stroke-linecap="round" stroke-width="8" d="M20 46h9.5C35.851 46 41 51.149 41 57.5v0C41 63.851 35.851 69 29.5 69h-14C9.149 69 4 74.149 4 80.5v0C4 86.851 9.149 92 15.5 92H72"/><path fill="#FFB64F" d="M96 48c0 11.267-17.34 32.28-22.542 38.33a1.908 1.908 0 0 1-2.916 0C65.341 80.28 48 59.268 48 48c0-13.255 10.745-24 24-24s24 10.745 24 24ZM35 16c0 7.19-10.594 20.336-14.541 24.984a1.904 1.904 0 0 1-2.918 0C13.594 36.336 3 23.19 3 16 3 7.163 10.163 0 19 0s16 7.163 16 16Z"/><circle cx="72" cy="48" r="8" fill="#F33136"/><circle cx="19" cy="16" r="5.333" fill="#F33136"/></g><defs><clipPath id="a"><path fill="#fff" d="M0 0h96v96H0z"/></clipPath></defs></svg>