<svg width="32" height="32" viewBox="0 0 32 32" fill="none" xmlns="http://www.w3.org/2000/svg">
<path d="M13.8787 26.5149C14.1466 26.448 14.4181 26.6108 14.4851 26.8787L14.9851 28.8787C14.9952 28.9193 15.0001 28.96 15.0001 29H16.9999C16.9999 28.96 17.0048 28.9193 17.0149 28.8787L17.5149 26.8787C17.5819 26.6108 17.8534 26.448 18.1213 26.5149C18.3892 26.5819 18.552 26.8534 18.4851 27.1213L18 29.0615V31C18 31.5523 17.5523 32 17 32H15C14.4477 32 14 31.5523 14 31V29.0616L13.5149 27.1213C13.448 26.8534 13.6108 26.5819 13.8787 26.5149Z" fill="#F33136"/>
<path d="M14 27C13.4477 27 12.9798 26.5318 12.6829 26.0661C12.1387 25.2125 10.95 24.2886 9.55535 23.2046C6.32881 20.6968 1.99998 17.3322 2 12C2 5.37258 8.26801 0 16 0V27H14Z" fill="#F33136"/>
<path d="M16 27H14.2857C14.2857 25.882 13.4127 24.6945 12.3173 23.2046C10.4736 20.6968 7.99999 17.3322 8 12C8 5.37258 11.5817 0 16 0V27Z" fill="#FC7B0E"/>
<path d="M18 27C18.5523 27 19.0202 26.5318 19.3171 26.0661C19.8613 25.2125 21.05 24.2886 22.4447 23.2046C25.6712 20.6968 30 17.3322 30 12C30 5.37258 23.732 0 16 0V27H18Z" fill="#FFD799"/>
<path d="M16 27H17.7143C17.7143 25.882 18.5873 24.6945 19.6827 23.2046C21.5264 20.6968 24 17.3322 24 12C24 5.37258 20.4183 0 16 0V27Z" fill="#FFB64F"/>
<rect x="8" width="24" height="8" rx="1" fill="#297EF1"/>
<path fill-rule="evenodd" clip-rule="evenodd" d="M11.051 6.2V1.862H12.548C12.832 1.862 13.0745 1.889 13.2755 1.943C13.4765 1.997 13.6415 2.074 13.7705 2.174C13.8995 2.274 13.994 2.395 14.054 2.537C14.114 2.679 14.144 2.839 14.144 3.017C14.144 3.119 14.129 3.2165 14.099 3.3095C14.069 3.4025 14.0225 3.4895 13.9595 3.5705C13.8965 3.6515 13.8165 3.725 13.7195 3.791C13.6225 3.857 13.507 3.913 13.373 3.959C13.969 4.093 14.267 4.415 14.267 4.925C14.267 5.109 14.232 5.279 14.162 5.435C14.092 5.591 13.99 5.7255 13.856 5.8385C13.722 5.9515 13.557 6.04 13.361 6.104C13.165 6.168 12.941 6.2 12.689 6.2H11.051ZM11.858 4.298V5.57H12.677C12.827 5.57 12.9525 5.552 13.0535 5.516C13.1545 5.48 13.2355 5.432 13.2965 5.372C13.3575 5.312 13.4015 5.242 13.4285 5.162C13.4555 5.082 13.469 4.997 13.469 4.907C13.469 4.813 13.454 4.7285 13.424 4.6535C13.394 4.5785 13.347 4.5145 13.283 4.4615C13.219 4.4085 13.137 4.368 13.037 4.34C12.937 4.312 12.816 4.298 12.674 4.298H11.858ZM11.858 3.74H12.503C12.777 3.74 12.985 3.69 13.127 3.59C13.269 3.49 13.34 3.331 13.34 3.113C13.34 2.887 13.276 2.726 13.148 2.63C13.02 2.534 12.82 2.486 12.548 2.486H11.858V3.74ZM18.896 1.862V2.504H16.973V3.707H18.488V4.328H16.973V5.555H18.896V6.2H16.16V1.862H18.896ZM23.852 1.862V2.525H22.547V6.2H21.74V2.525H20.429V1.862H23.852ZM29.378 6.2H28.754C28.684 6.2 28.6265 6.1825 28.5815 6.1475C28.5365 6.1125 28.504 6.069 28.484 6.017L28.16 5.132H26.363L26.039 6.017C26.023 6.063 25.9915 6.105 25.9445 6.143C25.8975 6.181 25.84 6.2 25.772 6.2H25.145L26.849 1.862H27.674L29.378 6.2ZM26.57 4.562H27.953L27.425 3.119C27.401 3.055 27.3745 2.9795 27.3455 2.8925C27.3165 2.8055 27.288 2.711 27.26 2.609C27.232 2.711 27.2045 2.806 27.1775 2.894C27.1505 2.982 27.124 3.059 27.098 3.125L26.57 4.562Z" fill="white"/>
</svg>
