<svg width="32" height="32" viewBox="0 0 32 32" fill="none" xmlns="http://www.w3.org/2000/svg">
<path d="M13.8787 26.5149C14.1466 26.448 14.4181 26.6108 14.4851 26.8787L14.9851 28.8787C14.9952 28.9193 15.0001 28.96 15.0001 29H16.9999C16.9999 28.96 17.0048 28.9193 17.0149 28.8787L17.5149 26.8787C17.5819 26.6108 17.8534 26.448 18.1213 26.5149C18.3892 26.5819 18.552 26.8534 18.4851 27.1213L18 29.0615V31C18 31.5523 17.5523 32 17 32H15C14.4477 32 14 31.5523 14 31V29.0616L13.5149 27.1213C13.448 26.8534 13.6108 26.5819 13.8787 26.5149Z" fill="#F33136"/>
<path d="M14 27C13.4477 27 12.9798 26.5318 12.6829 26.0661C12.1387 25.2125 10.95 24.2886 9.55535 23.2046C6.32881 20.6968 1.99998 17.3322 2 12C2 5.37258 8.26801 0 16 0V27H14Z" fill="#F33136"/>
<path d="M16 27H14.2857C14.2857 25.882 13.4127 24.6945 12.3173 23.2046C10.4736 20.6968 7.99999 17.3322 8 12C8 5.37258 11.5817 0 16 0V27Z" fill="#FC7B0E"/>
<path d="M18 27C18.5523 27 19.0202 26.5318 19.3171 26.0661C19.8613 25.2125 21.05 24.2886 22.4447 23.2046C25.6712 20.6968 30 17.3322 30 12C30 5.37258 23.732 0 16 0V27H18Z" fill="#FFD799"/>
<path d="M16 27H17.7143C17.7143 25.882 18.5873 24.6945 19.6827 23.2046C21.5264 20.6968 24 17.3322 24 12C24 5.37258 20.4183 0 16 0V27Z" fill="#FFB64F"/>
<rect x="8" y="24" width="24" height="8" rx="1" fill="#297EF1"/>
<path fill-rule="evenodd" clip-rule="evenodd" d="M11.051 30.2V25.862H12.548C12.832 25.862 13.0745 25.889 13.2755 25.943C13.4765 25.997 13.6415 26.074 13.7705 26.174C13.8995 26.274 13.994 26.395 14.054 26.537C14.114 26.679 14.144 26.839 14.144 27.017C14.144 27.119 14.129 27.2165 14.099 27.3095C14.069 27.4025 14.0225 27.4895 13.9595 27.5705C13.8965 27.6515 13.8165 27.725 13.7195 27.791C13.6225 27.857 13.507 27.913 13.373 27.959C13.969 28.093 14.267 28.415 14.267 28.925C14.267 29.109 14.232 29.279 14.162 29.435C14.092 29.591 13.99 29.7255 13.856 29.8385C13.722 29.9515 13.557 30.04 13.361 30.104C13.165 30.168 12.941 30.2 12.689 30.2H11.051ZM11.858 28.298V29.57H12.677C12.827 29.57 12.9525 29.552 13.0535 29.516C13.1545 29.48 13.2355 29.432 13.2965 29.372C13.3575 29.312 13.4015 29.242 13.4285 29.162C13.4555 29.082 13.469 28.997 13.469 28.907C13.469 28.813 13.454 28.7285 13.424 28.6535C13.394 28.5785 13.347 28.5145 13.283 28.4615C13.219 28.4085 13.137 28.368 13.037 28.34C12.937 28.312 12.816 28.298 12.674 28.298H11.858ZM11.858 27.74H12.503C12.777 27.74 12.985 27.69 13.127 27.59C13.269 27.49 13.34 27.331 13.34 27.113C13.34 26.887 13.276 26.726 13.148 26.63C13.02 26.534 12.82 26.486 12.548 26.486H11.858V27.74ZM18.896 25.862V26.504H16.973V27.707H18.488V28.328H16.973V29.555H18.896V30.2H16.16V25.862H18.896ZM23.852 25.862V26.525H22.547V30.2H21.74V26.525H20.429V25.862H23.852ZM29.378 30.2H28.754C28.684 30.2 28.6265 30.1825 28.5815 30.1475C28.5365 30.1125 28.504 30.069 28.484 30.017L28.16 29.132H26.363L26.039 30.017C26.023 30.063 25.9915 30.105 25.9445 30.143C25.8975 30.181 25.84 30.2 25.772 30.2H25.145L26.849 25.862H27.674L29.378 30.2ZM26.57 28.562H27.953L27.425 27.119C27.401 27.055 27.3745 26.9795 27.3455 26.8925C27.3165 26.8055 27.288 26.711 27.26 26.609C27.232 26.711 27.2045 26.806 27.1775 26.894C27.1505 26.982 27.124 27.059 27.098 27.125L26.57 28.562Z" fill="white"/>
</svg>
